<svg width="1600" height="500" xmlns="http://www.w3.org/2000/svg"><g text-anchor="middle" font-family="Impact"><text transform="scale(1.23267) rotate(30 17.714 1199.254)" font-size="70" fill="#8ca252">Ruby</text><text transform="matrix(1.23267 0 0 1.23267 1194.453 272.188)" font-size="70" fill="#b5cf6b">Unity</text><text transform="scale(1.23267) rotate(-30 432.724 -534.052)" font-size="70" fill="#cedb9c">kryptografia</text><text transform="scale(1.23267) rotate(30 169.207 2070.661)" font-size="70" fill="#8c6d31">kryptoanaliza</text><text transform="scale(1.23267) rotate(-30 672.09 -1419.914)" font-size="70" fill="#bd9e39">Python</text><text transform="scale(1.23267) rotate(-60 464.708 -609.273)" font-size="40" fill="#843c39">szyfry</text><text transform="matrix(1.23267 0 0 1.23267 1346.07 146.456)" font-size="40" fill="#7b4173">czekoladka</text><text transform="scale(1.23267) rotate(30 -58.999 1151.809)" font-size="10" fill="#a55194">ROT13</text><text transform="matrix(1.23267 0 0 1.23267 786.44 279.584)" font-size="70" fill="#393b79">tworzenie gier</text><text transform="scale(1.23267) rotate(-30 671.95 -575.951)" font-size="40" fill="#5254a3">C#</text><text transform="scale(1.23267) rotate(-30 620.496 -525.739)" font-size="40" fill="#6b6ecf">szyfr Cezara</text><text transform="scale(1.23267) rotate(30 -146.377 303.222)" font-size="40" fill="#9c9ede">kod Morse&apos;a</text><text transform="scale(1.23267) rotate(60 261.261 864.143)" font-size="10" fill="#637939">szyfr liczbowy</text><text transform="scale(1.23267) rotate(-30 963.984 -1277.701)" font-size="10" fill="#8ca252">GA-DE-RY-PO-LU-KI</text><text transform="scale(1.23267) rotate(30 192.24 1768.49)" font-size="10" fill="#b5cf6b">BA-WO-LE-TY-KI-JU</text><text transform="scale(1.23267) rotate(30 166.616 1777.355)" font-size="10" fill="#cedb9c">BI-TW-AO-CH-MU-RY</text><text transform="matrix(1.23267 0 0 1.23267 565.794 290.678)" font-size="10" fill="#8c6d31">DI-AM-EN-TO-WY-UL</text><text transform="scale(1.23267) rotate(-30 789.84 -508.363)" font-size="10" fill="#bd9e39">GU-BI-KA-LE-SO-NY</text><text transform="scale(1.23267) rotate(-60 422.011 -129.32)" font-size="10" fill="#e7ba52">HA-LO-JU-PI-TE-RY</text><text transform="scale(1.23267) rotate(-60 386.741 -370.23)" font-size="10" fill="#e7cb94">JE-MY-BU-RA-KI</text><text transform="matrix(1.23267 0 0 1.23267 547.304 194.53)" font-size="10" fill="#843c39">KA-CE-MI-NU-TO-WY</text><text transform="scale(1.23267) rotate(30 -27.994 543.501)" font-size="10" fill="#ad494a">KO-NI-EC-MA-TU-RY</text><text transform="scale(1.23267) rotate(-60 721.072 -939.308)" font-size="10" fill="#d6616b">KU-LA-RY-MI-NE-TO</text><text transform="scale(1.23267) rotate(-30 591.228 -401.58)" font-size="10" fill="#e7969c">KU-LO-PE-RY-ZA-GI</text><text transform="matrix(1.23267 0 0 1.23267 525.116 211.787)" font-size="10" fill="#7b4173">MA-LI-NO-WE-BU-TY</text><text transform="scale(1.23267) rotate(-60 335.672 -377.776)" font-size="10" fill="#a55194">MO-TY-LE-CU-DA-KI</text><text transform="scale(1.23267) rotate(-60 786.172 -740.064)" font-size="10" fill="#ce6dbd">NO-WE-BU-TY-LI-SA</text><text transform="matrix(1.23267 0 0 1.23267 1155.008 369.569)" font-size="10" fill="#de9ed6">PO-LI-TY-KA-RE-NU</text><text transform="scale(1.23267) rotate(30 -174.608 1772.786)" font-size="10" fill="#393b79">RE-GU-LA-MI-NO-WY</text><text transform="scale(1.23267) rotate(-30 397.669 -149.445)" font-size="10" fill="#5254a3">RÓ-ŻO-WE-TU-LI-PA-NY</text><text transform="scale(1.23267) rotate(-30 420.73 -183.265)" font-size="10" fill="#6b6ecf">TA-LE-RZ-BI-GO-SU</text><text transform="scale(1.23267) rotate(60 231.23 610.127)" font-size="10" fill="#9c9ede">TO-MY-BE-WA-LU-KI</text><text transform="scale(1.23267) rotate(-30 373.142 -140.017)" font-size="10" fill="#637939">ZA-BY-TK-OW-NI-CE</text><text transform="scale(1.23267) rotate(30 -329.34 1210.246)" font-size="10" fill="#8ca252">ZA-RE-WY-BU-HO-KI</text><text transform="scale(1.23267) rotate(-30 519.159 -490.892)" font-size="40" fill="#cedb9c">nauka programowania</text><text transform="scale(1.23267) rotate(-30 971.17 -1147.776)" font-size="10" fill="#8c6d31">matematyka w programowaniu</text><text transform="scale(1.23267) rotate(30 -429.86 611.18)" font-size="10" fill="#bd9e39">programuję jak dorosły</text><text transform="scale(1.23267) rotate(-30 296.21 -636.63)" font-size="10" fill="#e7ba52">każdy może programować</text><text transform="scale(1.23267) rotate(60 -162.37 240.391)" font-size="10" fill="#e7cb94">zostanę programistką</text><text transform="matrix(1.23267 0 0 1.23267 816.025 367.103)" font-size="10" fill="#843c39">zostanę programistą</text><text transform="scale(1.23267) rotate(60 518.622 1083.905)" font-size="10" fill="#ad494a">myślę gdy programuję</text><text transform="matrix(1.23267 0 0 1.23267 560.863 397.92)" font-size="10" fill="#e7969c">poznaję świat programowania</text><text transform="matrix(1.23267 0 0 1.23267 893.683 357.242)" font-size="100" fill="#6b6ecf">programowanie</text><text transform="matrix(1.23267 0 0 1.23267 981.202 56.471)" font-size="40" fill="#b5cf6b">programowanie jest super</text></g></svg>