<svg xmlns="http://www.w3.org/2000/svg" viewBox="0 0 400 240"><defs><linearGradient id="p" gradientUnits="userSpaceOnUse" x1="145.272" y1="2507.076" x2="167.996" y2="2497.045" gradientTransform="matrix(1.81602 0 0 -1.75984 -3.06 4438.014)"><stop offset="0" stop-color="#B31000"/><stop offset="0" stop-color="#B31000"/><stop offset=".44" stop-color="#910F08"/><stop offset=".99" stop-color="#791C12"/><stop offset="1" stop-color="#791C12"/></linearGradient><linearGradient id="o" gradientUnits="userSpaceOnUse" x1="67.509" y1="2393.115" x2="57.373" y2="2427.506" gradientTransform="matrix(1.81602 0 0 -1.75984 -3.06 4438.014)"><stop offset="0" stop-color="#8B2114"/><stop offset="0" stop-color="#8B2114"/><stop offset=".43" stop-color="#9E100A"/><stop offset=".99" stop-color="#B3100C"/><stop offset="1" stop-color="#B3100C"/></linearGradient><radialGradient id="n" cx="96.325" cy="2424.465" r="40.679" gradientTransform="matrix(1.81602 0 0 -1.75984 -3.06 4438.014)" gradientUnits="userSpaceOnUse"><stop offset="0" stop-color="#A30C00"/><stop offset="0" stop-color="#A30C00"/><stop offset=".99" stop-color="#800E08"/><stop offset="1" stop-color="#800E08"/></radialGradient><radialGradient id="m" cx="138.703" cy="2464.789" r="30.601" gradientTransform="matrix(1.81602 0 0 -1.75984 -3.06 4438.014)" gradientUnits="userSpaceOnUse"><stop offset="0" stop-color="#A80D00"/><stop offset="0" stop-color="#A80D00"/><stop offset=".99" stop-color="#7E0E08"/><stop offset="1" stop-color="#7E0E08"/></radialGradient><linearGradient id="l" gradientUnits="userSpaceOnUse" x1="168.959" y1="2483.901" x2="156.521" y2="2497.199" gradientTransform="matrix(1.81602 0 0 -1.75984 -3.06 4438.014)"><stop offset="0" stop-color="#79130D"/><stop offset="0" stop-color="#79130D"/><stop offset=".99" stop-color="#9E120B"/><stop offset="1" stop-color="#9E120B"/></linearGradient><linearGradient id="k" gradientUnits="userSpaceOnUse" x1="159.785" y1="2442.837" x2="134.814" y2="2465.217" gradientTransform="matrix(1.81602 0 0 -1.75984 -3.06 4438.014)"><stop offset="0" stop-color="#7E110B"/><stop offset="0" stop-color="#7E110B"/><stop offset=".99" stop-color="#9E0C00"/><stop offset="1" stop-color="#9E0C00"/></linearGradient><linearGradient id="j" gradientUnits="userSpaceOnUse" x1="111.507" y1="2409.102" x2="83.398" y2="2416.039" gradientTransform="matrix(1.81602 0 0 -1.75984 -3.06 4438.014)"><stop offset="0" stop-color="#8C0C01"/><stop offset="0" stop-color="#8C0C01"/><stop offset=".54" stop-color="#990C00"/><stop offset=".99" stop-color="#A80D0E"/><stop offset="1" stop-color="#A80D0E"/></linearGradient><linearGradient id="i" gradientUnits="userSpaceOnUse" x1="40.026" y1="2418.781" x2="133.345" y2="2514.739" gradientTransform="matrix(1.81602 0 0 -1.75984 -3.06 4438.014)"><stop offset="0" stop-color="#BD0012"/><stop offset="0" stop-color="#BD0012"/><stop offset=".07" stop-color="#fff"/><stop offset=".17" stop-color="#fff"/><stop offset=".27" stop-color="#C82F1C"/><stop offset=".33" stop-color="#820C01"/><stop offset=".46" stop-color="#A31601"/><stop offset=".72" stop-color="#B31301"/><stop offset=".99" stop-color="#E82609"/><stop offset="1" stop-color="#E82609"/></linearGradient><linearGradient id="h" gradientUnits="userSpaceOnUse" x1="53.674" y1="2444.028" x2="55.66" y2="2424.153" gradientTransform="matrix(1.81602 0 0 -1.75984 -3.06 4438.014)"><stop offset="0" stop-color="#fff"/><stop offset="0" stop-color="#fff"/><stop offset=".31" stop-color="#DE4024"/><stop offset=".99" stop-color="#BF190B"/><stop offset="1" stop-color="#BF190B"/></linearGradient><linearGradient id="g" gradientUnits="userSpaceOnUse" x1="123.6" y1="2506.018" x2="147.719" y2="2518.077" gradientTransform="matrix(1.81602 0 0 -1.75984 -3.06 4438.014)"><stop offset="0" stop-color="#fff"/><stop offset="0" stop-color="#fff"/><stop offset=".54" stop-color="#C81F11"/><stop offset=".99" stop-color="#BF0905"/><stop offset="1" stop-color="#BF0905"/></linearGradient><linearGradient id="f" gradientUnits="userSpaceOnUse" x1="140.691" y1="2497.523" x2="146.289" y2="2473.401" gradientTransform="matrix(1.81602 0 0 -1.75984 -3.06 4438.014)"><stop offset="0" stop-color="#fff"/><stop offset="0" stop-color="#fff"/><stop offset=".18" stop-color="#E46342"/><stop offset=".4" stop-color="#C82410"/><stop offset=".99" stop-color="#A80D00"/><stop offset="1" stop-color="#A80D00"/></linearGradient><linearGradient id="e" gradientUnits="userSpaceOnUse" x1="109.719" y1="2466.413" x2="111.589" y2="2432.757" gradientTransform="matrix(1.81602 0 0 -1.75984 -3.06 4438.014)"><stop offset="0" stop-color="#fff"/><stop offset="0" stop-color="#fff"/><stop offset=".23" stop-color="#E4714E"/><stop offset=".56" stop-color="#BE1A0D"/><stop offset=".99" stop-color="#A80D00"/><stop offset="1" stop-color="#A80D00"/></linearGradient><linearGradient id="d" gradientUnits="userSpaceOnUse" x1="74.817" y1="2435.622" x2="79.891" y2="2402.644" gradientTransform="matrix(1.81602 0 0 -1.75984 -3.06 4438.014)"><stop offset="0" stop-color="#fff"/><stop offset="0" stop-color="#fff"/><stop offset=".23" stop-color="#E57252"/><stop offset=".46" stop-color="#DE3B20"/><stop offset=".99" stop-color="#A60003"/><stop offset="1" stop-color="#A60003"/></linearGradient><linearGradient id="c" gradientUnits="userSpaceOnUse" x1="143.542" y1="2380.69" x2="110.81" y2="2402.655" gradientTransform="matrix(1.81602 0 0 -1.75984 -3.06 4438.014)"><stop offset="0" stop-color="#871101"/><stop offset="0" stop-color="#871101"/><stop offset=".99" stop-color="#911209"/><stop offset="1" stop-color="#911209"/></linearGradient><linearGradient id="b" gradientUnits="userSpaceOnUse" x1="169.731" y1="2419.72" x2="136.998" y2="2441.685" gradientTransform="matrix(1.81602 0 0 -1.75984 -3.06 4438.014)"><stop offset="0" stop-color="#871101"/><stop offset="0" stop-color="#871101"/><stop offset=".99" stop-color="#911209"/><stop offset="1" stop-color="#911209"/></linearGradient><linearGradient id="a" gradientUnits="userSpaceOnUse" x1="157.08" y1="2382.05" x2="131.682" y2="2426.892" gradientTransform="matrix(1.81602 0 0 -1.75984 -3.06 4438.014)"><stop offset="0" stop-color="#FB7655"/><stop offset="0" stop-color="#FB7655"/><stop offset=".41" stop-color="#E42B1E"/><stop offset=".99" stop-color="#900"/><stop offset="1" stop-color="#900"/></linearGradient></defs><path d="M259.497 154.936l-124.83 71.832 161.632-10.63 12.449-157.937z" fill="url(#a)"/><path d="M296.562 216.031l-13.89-92.918-37.841 48.42z" fill="url(#b)"/><path d="M296.751 216.031l-101.777-7.741-59.765 18.275z" fill="url(#c)"/><path d="M135.352 226.587l25.426-80.72-55.951 11.595z" fill="url(#d)"/><path d="M244.82 171.801l-23.394-88.802-66.95 60.817z" fill="url(#e)"/><path d="M303.44 84.249L240.152 34.16 222.53 89.372z" fill="url(#f)"/><path d="M273.844 16.301L236.62 36.235l-23.48-20.201z" fill="url(#g)"/><path d="M90.106 184.537l15.592-27.557-12.614-32.83z" fill="url(#h)"/><path d="M92.247 123.113l12.689 34.882 55.143-11.988 62.956-56.699 17.766-54.687-27.972-19.143-47.561 17.25c-14.986 13.507-44.063 40.23-45.11 40.733-1.041.512-19.205 33.78-27.91 49.652z" fill="#fff"/><path d="M136.809 60.445c32.474-31.202 74.342-49.64 90.41-33.93 16.06 15.709-.97 53.887-33.447 85.08-32.478 31.193-73.827 50.646-89.88 34.936-16.07-15.697.439-54.89 32.917-86.086z" fill="url(#i)"/><path d="M135.352 226.553l25.225-80.974 83.782 26.081c-30.291 27.528-63.984 50.798-109.007 54.893z" fill="url(#j)"/><path d="M223.148 89.148l21.509 82.556c25.304-25.782 48.013-53.5 59.135-87.786z" fill="url(#k)"/><path d="M303.572 84.337c8.608-25.175 10.593-61.287-29.995-67.992l-33.304 17.828z" fill="url(#l)"/><path d="M90.106 184.174c1.191 41.547 32.124 42.164 45.3 42.53l-30.434-68.88z" fill="#9e1209"/><path d="M223.268 89.277c19.446 11.581 58.632 34.841 59.425 35.269 1.235.674 16.897-25.592 20.45-40.434z" fill="url(#m)"/><path d="M160.544 145.58l33.724 63.05c19.94-10.479 35.555-23.248 49.857-36.926z" fill="url(#n)"/><path d="M104.838 157.91l-4.778 55.138c9.014 11.934 21.418 12.972 34.431 12.041-9.414-22.702-28.217-68.099-29.653-67.178z" fill="url(#o)"/><path d="M240.077 34.31l66.995 9.11c-3.576-14.682-14.556-24.157-33.27-27.119z" fill="url(#p)"/></svg>