<svg viewBox="0 0 1052.718 743.116" xmlns="http://www.w3.org/2000/svg" xmlns:xlink="http://www.w3.org/1999/xlink"><defs><linearGradient id="d"><stop stop-color="#fff" stop-opacity=".124" offset="0"/><stop stop-color="#00239a" stop-opacity="0" offset="1"/></linearGradient><linearGradient id="a"><stop stop-color="#0b0b28" offset="0"/><stop offset="1"/></linearGradient><linearGradient id="c"><stop stop-color="#ffef40" stop-opacity=".659" offset="0"/><stop stop-color="#eeffca" stop-opacity="0" offset="1"/></linearGradient><linearGradient id="b"><stop stop-color="#bfdfff" offset="0"/><stop stop-color="#fff" stop-opacity="0" offset="1"/></linearGradient><linearGradient id="g" x1="947.19" x2="943.07" y1="618.07" y2="658.19" gradientUnits="userSpaceOnUse" xlink:href="#a"/><linearGradient id="f" x1="1061.4" x2="1060" y1="596.79" y2="632.8" gradientUnits="userSpaceOnUse" xlink:href="#a"/><radialGradient id="l" cx="190.33" cy="1002.2" r="139.68" gradientUnits="userSpaceOnUse"><stop stop-color="#1dbfff" stop-opacity=".516" offset="0"/><stop stop-color="#0a3eff" stop-opacity="0" offset="1"/></radialGradient><radialGradient id="n" cx="-616.13" cy="-117.8" r="162.22" gradientUnits="userSpaceOnUse"><stop stop-color="#b7cde5" offset="0"/><stop stop-color="#3c7bcd" offset="1"/></radialGradient><radialGradient id="o" cx="467.43" cy="138.12" r="7.537" gradientTransform="matrix(1.1729 -.43233 .34585 .93829 -128.36 210.75)" gradientUnits="userSpaceOnUse"><stop stop-color="#4a83ba" stop-opacity=".401" offset="0"/><stop stop-color="#75a0d9" stop-opacity=".411" offset="1"/></radialGradient><radialGradient id="e" cx="431.85" cy="707.21" r="579.82" gradientTransform="matrix(.40065 0 0 .20634 958.64 339.53)" gradientUnits="userSpaceOnUse"><stop stop-color="#0035dc" offset="0"/><stop stop-color="#141434" offset="1"/></radialGradient><radialGradient id="h" cx="-117.45" cy="523.15" r="280.99" gradientTransform="matrix(1 0 0 .86775 0 69.184)" gradientUnits="userSpaceOnUse" xlink:href="#b"/><radialGradient id="i" cx="-634.03" cy="541.06" r="78.632" gradientTransform="matrix(.46946 .01563 -.14933 4.4864 -255.58 -1876.4)" gradientUnits="userSpaceOnUse" xlink:href="#c"/><radialGradient id="j" cx="-634.03" cy="541.06" r="78.632" gradientTransform="matrix(.47824 -.01216 .11392 4.4796 -392.45 -1890.4)" gradientUnits="userSpaceOnUse" xlink:href="#c"/><radialGradient id="k" cx="-634.03" cy="541.06" r="78.632" gradientTransform="matrix(.4697 .0045 -.04287 4.4813 -313.03 -1880.8)" gradientUnits="userSpaceOnUse" xlink:href="#c"/><radialGradient id="m" cx="-44.94" cy="552.56" r="26.008" gradientTransform="matrix(1 0 0 .88926 0 61.191)" gradientUnits="userSpaceOnUse" xlink:href="#b"/><radialGradient id="p" cx="350.49" cy="838.65" r="427.28" gradientTransform="matrix(.84638 -.0145 .00144 .08405 52.637 786.74)" gradientUnits="userSpaceOnUse" xlink:href="#d"/><radialGradient id="q" cx="350.49" cy="838.65" r="427.28" gradientTransform="matrix(1.1014 .0029 -.00256 .08404 -33.408 780.65)" gradientUnits="userSpaceOnUse" xlink:href="#d"/></defs><g transform="translate(-838.88 32.513)"><use transform="rotate(-15.123 -1336.201 56.85) scale(1.07969)" width="744.094" height="524.409"/><path d="M854.05 333.58h509.92v359.71H854.05z" fill="url(#e)" fill-rule="evenodd" transform="translate(-924.29 -721.18) scale(2.0645)"/><path d="M1363.3 572.31c-26.492 2.955-48.093 6.298-77.344 20.91-39.061 19.512-72.739 39.898-127.96 26.325s-81.494-33.609-148.84-25.125c-50.586 6.372-122 13.979-154.45 17.369v81.503h508.6v-120.98z" fill="url(#f)" fill-rule="evenodd" stroke="#000" stroke-width=".482" transform="translate(-924.29 -721.18) scale(2.0645)"/><path d="M909.13 591.98c-27.865.23-47.689 7.309-54.417 9.335v91.98h508.6V656.61l-20.748-1.508c-26.269-1.903-109.12-24.754-196.01-13.33s-91.602-.63-161.65-32.996c-28.458-13.149-54.463-16.974-75.771-16.798z" fill="url(#g)" fill-rule="evenodd" stroke="#000" stroke-width=".482" transform="translate(-924.29 -721.18) scale(2.0645)"/><path d="M1644.134 563.477c1.578-4.75-2.186-9.293-6.585-5.717-3.631 1.46-4.646-3.692-7.58-1.408-2.692-1.152 7.63-2.916.842-2.994-2.572.058-10.93.222-4.863-1.372.955-2.541-2.063 1.504-2.89-1.677-3.588-.263-2.4-2.515-2.83-5.008.83 1.568 7.232 3.426 4.957.089-3.546.106-2.357-4.078-.287-3.981-2.153.404-2.981.384-.928-.783-4.098-1.545 2.01-1.313-1.566-3.3.628-.619 10.026 2.387 6.38-.493-2.5-1.025-9.872-5.771-3.515-5.133 1.588-2.355-2.86-2.574-1.912-4.958-.535-.828 6.774 3.967 2.58-.858-2.45-1.098-1.1-1.632-.535-3.27 2.922-.197 6.256-.468 2.94-2.801-.802-2.989 6.561 1.478 3.917-.399-1.262-.704-.528-3.574-2.845-3.87.92.574 8.161.044 4.967-1.218-.172-.539.323-1.311-1.639-.486-1.416-2.076-2.493-3.46.754-3.617-.165-2.72-2.977-.507-2.584-4.11 1.693 1.171 7.81 5.888 7.987 2.864-3.026.565-6.844-3.905-1.812-2.584 3.94 2.152 2.401-1.206 1.091-2.593-1.82 1.051-7.14 1.372-2.336-.464 5.277-1.67-1.283-1.371-2.112-1.78 2.508.026 1.999-4.315 4.475-1.415 4.765-.482-3.31-7.154 2.304-3.345 5.54 1.69-4.396-5.43-1.537-5.105 3.13 1.845 3.253-.772 2.738-2.75 2.085-.608 2.161-2.459 1.413-2.87 1.3-.22 6.072-3.16 2.29-.113-3.438 5.027 7.041-2.6 2.329 1.551-2.338 1.932-3.363 6.37.67 3.177 5.555-3.242-3.58 4.556 1.948 1.716 1.141 1.558-2.698 1.727-2.086 3.893-4.93.416.716 1.237 2.905-.34-.678 1.373-6.64 6.222-.996 3.826 3.34-2.384 3.978-1.522 2.132 1.453-1.389.913-6.924 5.276-1.5 2.23 1.524-1.853 4.787-3.97 3.053-.043 1.71 2.975-6.89 3.712-1.523 4.828 2.528-.739 7.607-4.421 5.345-.492-.598 2.68-3.88 4.927.652 4.124-1.348 1.277-6.756.043-3.694 2.18-4.054 5.08 6.114 2.049 7.743.6-2.013 2.562-3.072 4.663-6.099 7.595 2.868 1.24 7.375-4.318 8.374-2.782.34 3.515-5.843 4.468-5.948 7.535 2.715.721 8.137-5.393 6.36-.45-.015 1.216-1.386 1.068-1.616 2.822-3.087.228-.605 4.705 1.525.729 1.883-2.363 4.56-3.486 3.155.507 2.211 2.624-2.901 3.622-2.149 3.929-1.864 1.024-5.211 3.711-1.228 2.396 2.313-1.895 5.438-4.357 2.81.157.32 3.154-2.468 3.17-3.412 3.79 1.65 2.524 7.47-2.57 3.962 1.965-1.281 2.526-10.941 3.442-4.06 3.138 3.015.306 8.445-1 3.322 1.957-4.02 4.012-6.948 5.339-12.828 6.139 3.42 1.568 2.083.664-.528 1.07 3.618 1.958-6.41-1.952-1.057 1.29-2.844 1.812-3.741-4.08-5.08.063-5.813-1.138 2.607 12.254-4.005 8.91.269-.62.167-1.296.245-1.944zm-6.05-7.555c.625-2.94-7.746.11-2.271.096.757.005 1.518 0 2.27-.096zm-9.555-5.856c-1.848.485-.381 2.184 0 0zm5.35-1.728c-.516-2.498-9.097-.64-4.287.25 1.429-.012 2.897.187 4.287-.25zm3.823.022c-.88-1.308-1.323 1.517 0 0zm5.538-.716c-.776-.711-1.093 1.187 0 0zm16.247-.724c-1.41-1.757-1.41 1.757 0 0zm-31.34-.498c-1.626-1.265-1.215.644 0 0zm31.53-.582c-.926-1.256-.244 1.302 0 0zm-29.81-1.44c-1.52-1.798-1.296 1.244 0 0zm1.72-.382c-.962-.807-.667 1.3 0 0zm-6.208-.396c2.746.522 4.8-1.523.465-.704-1.395-.232-2.82 1.27-.465.704zm39.205-1.361c-3.075-1.029-2.762 1.628-.128.066l.128-.066zm-37.395-1.459c-.778-.711-1.094 1.186 0 0zm1.913-5.045c-.927-1.255-.244 1.302 0 0zm.527-1.766c-.51-2.671-7.593-1.433-2.402-.11.754.288 1.634.462 2.402.11zm38.266-1.861c-1.496-3.558-5.22 2.374 0 0zm-36.237-1.3c-1.973-.635.102.87 0 0zm1.84-4.436c1.475-1.548-2.754.168-.547-1.998-1.606 2.526-7.995-3.755-5.373.764 1.698 1.055 3.936 1.688 5.92 1.234zm22.167-4.321c-.897-1.538-.985 1.568 0 0zm-23.696-.36c-.299-1.568-1.886 1.38 0 0zm4.415-4.713c.066-3.171-2.699 1.761 0 0zm1.89-.689c-.927-1.255-.243 1.303 0 0zm15.48-2.16c-.8-1.334-.457 1.148 0 0zm-15.097-1.44c-.355-1.267-1.303 1.44 0 0zm-2.198-.45c-1.35-1.43-.875 1.767 0 0zm-1.433-.652c-1.33-1.836-1.718 2.155 0 0zm17.218-2.329c2.687-2.074-5.1 1.834 0 0zm-4.605-3.973c-1.875-1.058-.652 1.39 0 0zm-4.969-5.318c-3.18-1.625-1.56 1.695 0 0zm-15.184 56.076c1.395-.496.733.758 0 0zm6.795-58.085c-1.37-2.798 2.177 1.652 0 0zm5.714-10.887c1.607-1.692 3.145.726 0 0zm3.39-2.718c.116-.515.834-2.037 2.09-.418-.541.55-1.569 1.605-2.09.418zm-.115-2.528c.192-3.123 3.691 3.205 0 0zm.226-2.353c-1.393-2.452 2.468.734 0 0zm.206-2.917c-.317-3.352 1.22 1.562 0 0z"/><path transform="matrix(.03342 .01926 -.02137 .03012 1155.487 123.717)" d="M23.888 766.01l-141.21-207.2-139.78 208.17 108.83-225.9-250.17-16.966 250.05-18.695-110.39-225.14 141.21 207.2 139.78-208.17-108.83 225.9 250.17 16.966-250.05 18.695 110.39 225.14z" fill="url(#h)" fill-rule="evenodd"/><path transform="matrix(.02126 .03398 -.03772 .01916 1174.48 148.16)" d="M-555.4 541.06a78.632 352.35 0 1 1-157.26 0 78.632 352.35 0 1 1 157.26 0z" fill="url(#i)" fill-rule="evenodd" opacity=".727"/><path transform="matrix(.04321 .00235 -.00262 .03894 1169.32 117.379)" d="M-555.4 541.06a78.632 352.35 0 1 1-157.26 0 78.632 352.35 0 1 1 157.26 0z" fill="url(#j)" fill-rule="evenodd" opacity=".727"/><path transform="matrix(.02298 -.03305 .03669 .0207 1135.11 105.177)" d="M-555.4 541.06a78.632 352.35 0 1 1-157.26 0 78.632 352.35 0 1 1 157.26 0z" fill="url(#k)" fill-rule="evenodd" opacity=".727"/><path transform="matrix(.03342 .01926 -.02137 .03012 1405.911 85.647)" d="M23.888 766.01l-141.21-207.2-139.78 208.17 108.83-225.9-250.17-16.966 250.05-18.695-110.39-225.14 141.21 207.2 139.78-208.17-108.83 225.9 250.17 16.966-250.05 18.695 110.39 225.14z" fill="url(#h)" fill-rule="evenodd"/><path transform="matrix(.02126 .03398 -.03772 .01916 1424.905 110.09)" d="M-555.4 541.06a78.632 352.35 0 1 1-157.26 0 78.632 352.35 0 1 1 157.26 0z" fill="url(#i)" fill-rule="evenodd" opacity=".727"/><path transform="matrix(.04321 .00235 -.00262 .03894 1419.95 79.31)" d="M-555.4 541.06a78.632 352.35 0 1 1-157.26 0 78.632 352.35 0 1 1 157.26 0z" fill="url(#j)" fill-rule="evenodd" opacity=".727"/><path transform="matrix(.02298 -.03305 .03669 .0207 1385.68 67.108)" d="M-555.4 541.06a78.632 352.35 0 1 1-157.26 0 78.632 352.35 0 1 1 157.26 0z" fill="url(#k)" fill-rule="evenodd" opacity=".727"/><path transform="matrix(.03342 .01926 -.02137 .03012 1583.458 280.99)" d="M23.888 766.01l-141.21-207.2-139.78 208.17 108.83-225.9-250.17-16.966 250.05-18.695-110.39-225.14 141.21 207.2 139.78-208.17-108.83 225.9 250.17 16.966-250.05 18.695 110.39 225.14z" fill="url(#h)" fill-rule="evenodd"/><path transform="matrix(.02126 .03398 -.03772 .01916 1602.452 305.434)" d="M-555.4 541.06a78.632 352.35 0 1 1-157.26 0 78.632 352.35 0 1 1 157.26 0z" fill="url(#i)" fill-rule="evenodd" opacity=".727"/><path transform="matrix(.04321 .00235 -.00262 .03894 1597.29 274.652)" d="M-555.4 541.06a78.632 352.35 0 1 1-157.26 0 78.632 352.35 0 1 1 157.26 0z" fill="url(#j)" fill-rule="evenodd" opacity=".727"/><path transform="matrix(.02298 -.03305 .03669 .0207 1563.02 262.451)" d="M-555.4 541.06a78.632 352.35 0 1 1-157.26 0 78.632 352.35 0 1 1 157.26 0z" fill="url(#k)" fill-rule="evenodd" opacity=".727"/><path transform="matrix(.03342 .01926 -.02137 .03012 1269.241 189.347)" d="M23.888 766.01l-141.21-207.2-139.78 208.17 108.83-225.9-250.17-16.966 250.05-18.695-110.39-225.14 141.21 207.2 139.78-208.17-108.83 225.9 250.17 16.966-250.05 18.695 110.39 225.14z" fill="url(#h)" fill-rule="evenodd"/><path transform="matrix(.02126 .03398 -.03772 .01916 1288.441 213.811)" d="M-555.4 541.06a78.632 352.35 0 1 1-157.26 0 78.632 352.35 0 1 1 157.26 0z" fill="url(#i)" fill-rule="evenodd" opacity=".727"/><path transform="matrix(.04321 .00235 -.00262 .03894 1283.28 183.01)" d="M-555.4 541.06a78.632 352.35 0 1 1-157.26 0 78.632 352.35 0 1 1 157.26 0z" fill="url(#j)" fill-rule="evenodd" opacity=".727"/><path transform="matrix(.02298 -.03305 .03669 .0207 1249.01 170.808)" d="M-555.4 541.06a78.632 352.35 0 1 1-157.26 0 78.632 352.35 0 1 1 157.26 0z" fill="url(#k)" fill-rule="evenodd" opacity=".727"/><path transform="matrix(.02304 .01406 -.01472 .02199 1302.686 315.509)" d="M23.888 766.01l-141.21-207.2-139.78 208.17 108.83-225.9-250.17-16.966 250.05-18.695-110.39-225.14 141.21 207.2 139.78-208.17-108.83 225.9 250.17 16.966-250.05 18.695 110.39 225.14z" fill="url(#h)" fill-rule="evenodd"/><path transform="matrix(.01464 .02482 -.02597 .01398 1315.899 333.367)" d="M-555.4 541.06a78.632 352.35 0 1 1-157.26 0 78.632 352.35 0 1 1 157.26 0z" fill="url(#i)" fill-rule="evenodd" opacity=".727"/><path transform="matrix(.02977 .00171 -.0018 .02843 1312.39 310.884)" d="M-555.4 541.06a78.632 352.35 0 1 1-157.26 0 78.632 352.35 0 1 1 157.26 0z" fill="url(#j)" fill-rule="evenodd" opacity=".727"/><path transform="matrix(.01583 -.02413 .02527 .01511 1288.854 301.966)" d="M-555.4 541.06a78.632 352.35 0 1 1-157.26 0 78.632 352.35 0 1 1 157.26 0z" fill="url(#k)" fill-rule="evenodd" opacity=".727"/><path transform="matrix(.03342 .01926 -.02137 .03012 1246.325 13.472)" d="M23.888 766.01l-141.21-207.2-139.78 208.17 108.83-225.9-250.17-16.966 250.05-18.695-110.39-225.14 141.21 207.2 139.78-208.17-108.83 225.9 250.17 16.966-250.05 18.695 110.39 225.14z" fill="url(#h)" fill-rule="evenodd"/><path transform="matrix(.02126 .03398 -.03772 .01916 1265.525 37.916)" d="M-555.4 541.06a78.632 352.35 0 1 1-157.26 0 78.632 352.35 0 1 1 157.26 0z" fill="url(#i)" fill-rule="evenodd" opacity=".727"/><path transform="matrix(.04321 .00235 -.00262 .03894 1260.364 7.134)" d="M-555.4 541.06a78.632 352.35 0 1 1-157.26 0 78.632 352.35 0 1 1 157.26 0z" fill="url(#j)" fill-rule="evenodd" opacity=".727"/><path transform="matrix(.02298 -.03305 .03669 .0207 1226.093 -5.067)" d="M-555.4 541.06a78.632 352.35 0 1 1-157.26 0 78.632 352.35 0 1 1 157.26 0z" fill="url(#k)" fill-rule="evenodd" opacity=".727"/><path transform="matrix(.03342 .01926 -.02137 .03012 1702.58 161.208)" d="M23.888 766.01l-141.21-207.2-139.78 208.17 108.83-225.9-250.17-16.966 250.05-18.695-110.39-225.14 141.21 207.2 139.78-208.17-108.83 225.9 250.17 16.966-250.05 18.695 110.39 225.14z" fill="url(#h)" fill-rule="evenodd"/><path transform="matrix(.02126 .03398 -.03772 .01916 1721.573 185.672)" d="M-555.4 541.06a78.632 352.35 0 1 1-157.26 0 78.632 352.35 0 1 1 157.26 0z" fill="url(#i)" fill-rule="evenodd" opacity=".727"/><path transform="matrix(.04321 .00235 -.00262 .03894 1716.412 154.87)" d="M-555.4 541.06a78.632 352.35 0 1 1-157.26 0 78.632 352.35 0 1 1 157.26 0z" fill="url(#j)" fill-rule="evenodd" opacity=".727"/><path transform="matrix(.02298 -.03305 .03669 .0207 1682.141 142.669)" d="M-555.4 541.06a78.632 352.35 0 1 1-157.26 0 78.632 352.35 0 1 1 157.26 0z" fill="url(#k)" fill-rule="evenodd" opacity=".727"/><path transform="matrix(.03342 .01926 -.02137 .03012 1849.572 46.546)" d="M23.888 766.01l-141.21-207.2-139.78 208.17 108.83-225.9-250.17-16.966 250.05-18.695-110.39-225.14 141.21 207.2 139.78-208.17-108.83 225.9 250.17 16.966-250.05 18.695 110.39 225.14z" fill="url(#h)" fill-rule="evenodd"/><path transform="matrix(.02126 .03398 -.03772 .01916 1868.772 70.99)" d="M-555.4 541.06a78.632 352.35 0 1 1-157.26 0 78.632 352.35 0 1 1 157.26 0z" fill="url(#i)" fill-rule="evenodd" opacity=".727"/><path transform="matrix(.04321 .00235 -.00262 .03894 1863.61 40.187)" d="M-555.4 541.06a78.632 352.35 0 1 1-157.26 0 78.632 352.35 0 1 1 157.26 0z" fill="url(#j)" fill-rule="evenodd" opacity=".727"/><path transform="matrix(.02298 -.03305 .03669 .0207 1829.34 27.986)" d="M-555.4 541.06a78.632 352.35 0 1 1-157.26 0 78.632 352.35 0 1 1 157.26 0z" fill="url(#k)" fill-rule="evenodd" opacity=".727"/><path transform="matrix(.03342 .01926 -.02137 .03012 1542.168 40.765)" d="M23.888 766.01l-141.21-207.2-139.78 208.17 108.83-225.9-250.17-16.966 250.05-18.695-110.39-225.14 141.21 207.2 139.78-208.17-108.83 225.9 250.17 16.966-250.05 18.695 110.39 225.14z" fill="url(#h)" fill-rule="evenodd"/><path transform="matrix(.02126 .03398 -.03772 .01916 1561.368 65.209)" d="M-555.4 541.06a78.632 352.35 0 1 1-157.26 0 78.632 352.35 0 1 1 157.26 0z" fill="url(#i)" fill-rule="evenodd" opacity=".727"/><path transform="matrix(.04321 .00235 -.00262 .03894 1556.207 34.427)" d="M-555.4 541.06a78.632 352.35 0 1 1-157.26 0 78.632 352.35 0 1 1 157.26 0z" fill="url(#j)" fill-rule="evenodd" opacity=".727"/><path transform="matrix(.02298 -.03305 .03669 .0207 1521.936 22.226)" d="M-555.4 541.06a78.632 352.35 0 1 1-157.26 0 78.632 352.35 0 1 1 157.26 0z" fill="url(#k)" fill-rule="evenodd" opacity=".727"/><path transform="matrix(.03342 .01926 -.02137 .03012 1061.965 366.646)" d="M23.888 766.01l-141.21-207.2-139.78 208.17 108.83-225.9-250.17-16.966 250.05-18.695-110.39-225.14 141.21 207.2 139.78-208.17-108.83 225.9 250.17 16.966-250.05 18.695 110.39 225.14z" fill="url(#h)" fill-rule="evenodd"/><path transform="matrix(.02126 .03398 -.03772 .01916 1081.083 391.09)" d="M-555.4 541.06a78.632 352.35 0 1 1-157.26 0 78.632 352.35 0 1 1 157.26 0z" fill="url(#i)" fill-rule="evenodd" opacity=".727"/><path transform="matrix(.04321 .00235 -.00262 .03894 1075.942 360.308)" d="M-555.4 541.06a78.632 352.35 0 1 1-157.26 0 78.632 352.35 0 1 1 157.26 0z" fill="url(#j)" fill-rule="evenodd" opacity=".727"/><path transform="matrix(.02298 -.03305 .03669 .0207 1041.671 348.107)" d="M-555.4 541.06a78.632 352.35 0 1 1-157.26 0 78.632 352.35 0 1 1 157.26 0z" fill="url(#k)" fill-rule="evenodd" opacity=".727"/><path transform="matrix(1.92411 0 0 1.5953 1176.339 -1383.017)" d="M330.01 1002.2a139.68 139.68 0 1 1-279.36 0 139.68 139.68 0 1 1 279.36 0z" fill="url(#l)" fill-rule="evenodd"/><path transform="matrix(.06125 0 0 .0552 1693.702 -6.533)" d="M23.888 766.01l-141.21-207.2-139.78 208.17 108.83-225.9-250.17-16.966 250.05-18.695-110.39-225.14 141.21 207.2 139.78-208.17-108.83 225.9 250.17 16.966-250.05 18.695 110.39 225.14z" fill="url(#h)" fill-rule="evenodd"/><path transform="matrix(.059 .02826 -.03138 .05318 1740.98 10.954)" d="M-555.4 541.06a78.632 352.35 0 1 1-157.26 0 78.632 352.35 0 1 1 157.26 0z" fill="url(#i)" fill-rule="evenodd" opacity=".727"/><path transform="matrix(.05838 -.02932 .03254 .0526 1705.883 -25.258)" d="M-555.4 541.06a78.632 352.35 0 1 1-157.26 0 78.632 352.35 0 1 1 157.26 0z" fill="url(#j)" fill-rule="evenodd" opacity=".727"/><path transform="matrix(-.0006 -.06022 .06683 -.00054 1650.141 -15.451)" d="M-555.4 541.06a78.632 352.35 0 1 1-157.26 0 78.632 352.35 0 1 1 157.26 0z" fill="url(#k)" fill-rule="evenodd" opacity=".727"/><path transform="matrix(.02797 0 0 .0247 1482.71 433.454)" d="M23.888 766.01l-141.21-207.2-139.78 208.17 108.83-225.9-250.17-16.966 250.05-18.695-110.39-225.14 141.21 207.2 139.78-208.17-108.83 225.9 250.17 16.966-250.05 18.695 110.39 225.14z" fill="url(#h)" fill-rule="evenodd"/><path transform="matrix(.02696 .01263 -.01433 .02378 1504.388 441.257)" d="M-555.4 541.06a78.632 352.35 0 1 1-157.26 0 78.632 352.35 0 1 1 157.26 0z" fill="url(#i)" fill-rule="evenodd" opacity=".727"/><path transform="matrix(.02667 -.01311 .01486 .02351 1488.285 425.072)" d="M-555.4 541.06a78.632 352.35 0 1 1-157.26 0 78.632 352.35 0 1 1 157.26 0z" fill="url(#j)" fill-rule="evenodd" opacity=".727"/><path transform="matrix(-.00027 -.02692 .03053 -.00025 1462.891 429.448)" d="M-555.4 541.06a78.632 352.35 0 1 1-157.26 0 78.632 352.35 0 1 1 157.26 0z" fill="url(#k)" fill-rule="evenodd" opacity=".727"/><path transform="matrix(.03342 .01926 -.02137 .03012 1822.114 359.792)" d="M23.888 766.01l-141.21-207.2-139.78 208.17 108.83-225.9-250.17-16.966 250.05-18.695-110.39-225.14 141.21 207.2 139.78-208.17-108.83 225.9 250.17 16.966-250.05 18.695 110.39 225.14z" fill="url(#h)" fill-rule="evenodd"/><path transform="matrix(.02126 .03398 -.03772 .01916 1841.108 384.236)" d="M-555.4 541.06a78.632 352.35 0 1 1-157.26 0 78.632 352.35 0 1 1 157.26 0z" fill="url(#i)" fill-rule="evenodd" opacity=".727"/><path transform="matrix(.04321 .00235 -.00262 .03894 1835.946 353.434)" d="M-555.4 541.06a78.632 352.35 0 1 1-157.26 0 78.632 352.35 0 1 1 157.26 0z" fill="url(#j)" fill-rule="evenodd" opacity=".727"/><path transform="matrix(.02298 -.03305 .03669 .0207 1801.676 341.232)" d="M-555.4 541.06a78.632 352.35 0 1 1-157.26 0 78.632 352.35 0 1 1 157.26 0z" fill="url(#k)" fill-rule="evenodd" opacity=".727"/><path d="M1690.637 544.282c1.263-3.52-1.696-6.997-5.02-4.36-2.479 1.07-3.694-2.501-5.875-1.126-.608-1.08 5.103-2.155.536-2.164-1.586-.047-7.402.35-3.527-1.05.742-1.226-2.59.086-3.142-1.862-1.642.512-.676-2.3-.832-3.086.91 2.56 6.484.895 2.267-.385-2.16-1.826 3.27-3.231-.622-2.529 2.55-.438-1.962-1.949.838-1.932-3.894-3.625 6.899 1.434 3.532-1.793-2.136-.943-6.651-3.846-2.31-3.993.2-1.152-3.506-4.983.131-2.796 3.428.933-2.551-2.37-.372-3.507 1.97-.878 4.885-.124 2.511-2.742.3-1.659 3.361 1.641 3.147-.07-.607.306-1.999-3.229-1.937-2.858 2.534.93 4.933-.493 2.889-1.549-1.401.89-3.198-3.112-.444-2.166.846-1.758-3.23-1.757-1.188-3.17 1.04 1.39 5.57 3.9 5.334 1.964-2.233.321-4.785-2.931-1.135-1.856 3.716 1.185.332-4.086-1.709-1.409-2.63-.03 5.536-2.661.142-2.119-2.497.619 1.523-3.237 2.306-1.3 3.374-.364-2.198-5.158 1.714-2.599 4.26 1.404-4.825-5.483.148-3.32 1.95-.34-.193-2.95 2.06-3.619-1.056-1.47 4.671-3.455 1.505-1.027-2.1 3.09 4.842-1.625 1.779 1.02-3.302 3.45-.034 2.944 1.96 2.128-1.554 1.627-1.87 2.048.327 1.911-1.51.892-1.596 2.958-3.52 2.855 1.14.825 5.79-1.408 2.423 1.024-3.33 3.287 1.643.815 3.216.329.011 1.99-6.28 5.971-1.983 3.705 1.693-2.063 2.915-1.749 2.163.742.366 1.6-4.575 2.215-1.142 2.982 1.786-.215 5.797-3.805 3.818.248-1.308 1.654-.986 2.625.419 2.7-2.177.347-3.444.28-3.02 1.684-.86 4.512 5.132.252 6.097.464-.44 1.96-4.934 4.861-3.401 5.608 2.387-.533 7.157-4.669 4.354.063-.85.77-5.616 3.442-2.041 3.276 1.998-1.338 4.431-2.768 3.395.546-.555.488-2.9 1.687-1.912 3.163 1.828-.648 5.137-5.285 4.446-.735.726 3.186-4.367 2.978-3.798 5.037 1.703.054 5.01-4.536 3.35-.544.08 1.962-2.116 3.196-2.765 3.293 1.411 1.114 5.543-1.371 2.745 1.734-1.677 1.437-7.487 2.273-2.298 2.033 2.086-.13 5.352-.42 1.97 1.474-2.082 3.022-7.266 3.824-9.104 4.863 3.09.69-2.793.272-.033.907-1.454.233-3.831-1.376-2.1.755-2.198.307-2.306-2.372-3.66-.281-3.805.251 1.793 9.281-2.785 6.697.04-.422.236-.827.153-1.258zm-4.572-5.71c-.332-2.537-5.718.616-1.037.072l.52-.023.517-.048zm-7.22-4.424c-1.459.238-.149 1.735 0 0zm4.044-1.306c-1.443-2.452-7.065.369-2.356.247.79-.008 1.578-.11 2.356-.247zm2.887.017c-.684-.973-.82 1.17 0 0zm4.186-.54c-.635-.488-.64.867 0 0zm12.276-.548c-.963-1.34-.962 1.34 0 0zm-23.681-.376c-1.31-1.034-.96.547 0 0zm23.825-.44c-.697-1.026-.196 1.04 0 0zm-22.526-1.089c-.889-1.377-1.024.932 0 0zm1.3-.288c-.733-.6-.378.975 0 0zm-4.69-.299c2.273.472 3.085-1.294.118-.542-.528-.212-1.887 1.203-.119.542zm29.624-1.029c-1.876-1.015-2.57 1.513 0 0zm-28.257-1.102c-.636-.487-.64.868 0 0zm1.446-3.812c-.698-1.026-.197 1.039 0 0zm.398-1.334c-.923-2.403-5.423-.523-1.156.106l.583.037.573-.143zm28.914-1.407c-1.009-2.621-3.705 1.87 0 0zm-27.38-.982c-1.413-.711-.1.746 0 0zm1.389-3.352c.245-.492-1.506-1.26-.683-1.21-1.307.648-6.137-2.517-3.299.565 1.196.67 2.636.889 3.982.645zm16.75-3.265c-.61-1.02-.555 1.021 0 0zm-17.905-.272c-.428-1.062-1.281 1.073 0 0zm3.336-3.561c.073-2.296-1.825 1.271 0 0zm1.429-.52c-.698-1.027-.197 1.04 0 0zm11.696-1.633c-.51-.978-.36.808 0 0zm-11.407-1.089c-.47-.843-.666.97 0 0zm-1.661-.34c-.945-1.085-.582 1.32 0 0zm-1.083-.492c-1.054-1.414-1.246 1.714 0 0zm13.01-1.76c1.719-1.474-3.535 1.354 0 0zm-3.48-3.002c-1.2-.888-.522 1.057 0 0zm-3.754-4.018c-1.863-1.409-1.635 1.416 0 0zm-11.474 42.372c1.024-.501.506.595 0 0zm5.135-43.89c-.997-2.003 1.55 1.137 0 0zm4.317-8.226c1.556-1.314 1.953.606 0 0zm2.563-2.054c.054-.502.94-1.704 1.47-.287-.16.648-1.064.864-1.47.287zm-.088-1.91c-.16-2.676 3.026 2.637 0 0zm.17-1.778c-1.027-1.878 1.75.66 0 0zm.156-2.204c-.407-2.8 1.036 1.17 0 0zM1739.112 509.523c-2.275-6.489 4.46-7.489 8.6-5.459 2.458-2.601 8.534-1.17 2.35-3.676.908-1.836 12.354.94 6.582-2.842 4.618 2.545 8.72-8.846 2.075-3.787-4.88-.065 4.836-4.18-.994-5.59 3.416.77.252-.727 2.208-1.917-1.876-1.639 1.53-2.88-2.945-1.712-6.28 1.762-2.426-1.626.738-2.968 5.726-3.028-4.697-2.774 1.373-6.192 1.47-3.593-6.42 2.387-2.379-2.232 5.097-3.951-7.41-2.417-2.372-6.647-3.034-.62-5.23 2.491-2.751-1.634 5.284-3.545-7.064.118-2.487-3.71 3.31.563 2.01-3.807.464-3.946 3.442-1.488 2.441-4.587-.788-1.047-3.01 2.575-6.64.89-1.483-.263 3.663-4.12-8.133 1.767-2.428-4.122 3.203 1.79 5.999.13.85-.971-.753-1.944 6.017.093 1.278-2.928-3.743 1.178-3.7-1.846-2.916-3.816-6.634 3.667.778-2.723.02-4.001-4.975 2.085-2.001-6.921-6.969-6.678-1.118-.507 3.828 4.848-.852 2.198-5.077-3.67 5.924 7.702-1.313 3.507-4.557-2.69 2.913 4.248-2.091 2.169 1.746 2.823 6.651 4.8.338 3.398-2.533-1.349 5.764 5.948.039 3.233-7.195-4.22 1.783 4.925.889 4.354-2.701-2.403-6.622-4.456-4.192.961 6.288 3.271-1.267 2.94-3.93.694-2.022 1.145 4.64 7.032-.661 5.699 3.737-.13 5.979 2.515 3.343 4.823-3.938.356-9.794-4.346-4.678 1.408 2.228 2.213 4.636 5.592-.21 3.092-2.22-2.777-6.93-2.492-2.925 1.043 3.365 1.165 5.814 6.5.55 3.18-6.051-3.38-.039 3.713.121 5.266-1.864 1.363-7.006-6.925-5.684-.683-2.648 2.616 9.673 7.823 2.404 5.422-4.702-5.023-2.17 4.927 1.446 4.518-2.096 1.678-7.487-1.673-3.036 2.745 2.76 1.56 8.091 2.575 1.952 2.242-9.033-1.355 3.337 6.685 6.584 7.075 1.83.572 5.419.414 1.86 1.649 2.538.296 2.21.527 4.766.468-2.578 3.387 3.78-2.543 4.517.888 2.938 1.33-1.627 12.627 2.787 7.74l-.05-.951zm5.855-7.31c.61-3.314 7.237 1.074 1.097.083l-1.097-.083zm9.245-5.666c1.587.207.535 2.252 0 0zm-5.177-1.673c2.241-3.308 8.848.873 2.06.276l-1.039-.06-1.021-.216zm-3.699.022c.87-1.304 1.183 1.542 0 0zm-5.36-.693c.868-.76.821 1.31 0 0zm-15.719-.7c1.283-1.831 1.38 1.85 0 0zm30.325-.483c1.303-1.405 1.222.768 0 0zm-30.51-.563c.812-1.331.304 1.292 0 0zm28.846-1.394c1.43-1.96 1.272 1.3 0 0zm-1.665-.369c.972-.864.498 1.366 0 0zm6.007-.382c-5.515.207-.367-2.165 1.08.093l-1.08-.093zm-37.936-1.318c2.882-1.226 2.579 1.835 0 0zm36.185-1.411c.867-.76.82 1.31 0 0zm-1.852-4.882c.813-1.332.305 1.291 0 0zm-.51-1.709c2.55-3.927 7.485.503 0 0zm-37.026-1.8c1.796-3.489 4.174 2.722 0 0zm35.063-1.259c1.826-.965.078.984 0 0zm-1.78-4.292c.553-2.265 2.634-1.199 6.278-2.664-.341 2.601-4.235 3.018-6.278 2.664zm-21.449-4.18c.832-1.427.79 1.463 0 0zm22.928-.35c.383-1.598 1.688 1.547 0 0zm-4.272-4.56c-.113-2.943 2.456 1.702 0 0zm-1.83-.666c.813-1.331.306 1.292 0 0zm-14.977-2.09c.637-1.417.542 1.133 0 0zm14.608-1.394c.437-1.28 1.127 1.564 0 0zm2.126-.436c1.264-1.52.854 1.876 0 0zm1.387-.63c1.254-1.709 1.376 2.11 0 0zm-16.66-2.253c-2.138-1.97 4.447 1.845 0 0zm4.456-3.845c1.707-1.14.646 1.394 0 0zm4.808-5.146c2.413-1.766 1.716 1.673 0 0zm14.692 54.26c-1.214-.66-.691.844 0 0zm-6.575-56.204c1.286-2.74-1.949 1.59 0 0zm-5.529-10.534c-.953-1.566-3.846.705 0 0zm-3.28-2.63c-1.63-3.556-3.389 2.24 0 0zm.111-2.446c-.699-2.817-2.925 3.233 0 0zm-.218-2.276c1.323-2.335-2.235.756 0 0zm-.2-2.823c.661-3.494-1.337 1.44 0 0zM1580.882 564.572c-.728-2.162.595-5.085 3.084-3.6 1.468 1.62 3.007-.791 4.042-.652 1.203.888 1.668-.826.092-.663-2.38-1.23 2.335-.72 3.232-.815 1.11-.098 1.54-.257.24-.561-1.418-1.321 1.248.032 1.662-1.337.644-.763 1.654-.057.915-1.011.27-.823.565-2.47-.52-.995-.85 1.317-3.804-.315-1.27-.756 1.755-.564-.707-2.462-.32-2.057 1.665.288.298-.218.507-.62 1.217-.54.083-.76-.009-1.033 1.719-2.122-2.434.56-3.408-.394.672-1.355 3.499-1.576 4.03-3.498-1.628.798-2.36-1.141-.786-1.733 1.103-2.175-.896-.348-1.863-.345.344-1.338 2.521-1.994.824-3.107-1.137-.23-3.366-.062-1.59-1.526.3-1.863-2.52.998-2.308-.345.867.244.445-2.073 1.79-2.119-.975-.167-3.457.898-3.183-.846.869.846.083-1.179 1.07-.099 1.018-.597 1.663-2.289-.057-1.866-.802-1.156 1.026-1.072 1.024-1.196.893-2.757-1.706.442-2.787.686-1.193.664-2.374-.571-.52-.628 1.456.152 2.19-1.953.307-1.226-1.816 1.02-1.999-.96-.622-1.464.659.21 3.355.995 1.534-.086-1.04-.2-2.323-1.32-.369-1.03.74.145 1.705-.248.437-.372-.25-2.264-2.95.562-2.65-1.742.29-.79 1.387-1.94.066-1.01-1.042.814-2.463.041-.735-.614.797-.394 2.042-3.089.362-1.715-1.923.292.038-2.112-1.655-2.406-.415-.943.254-1.062-.88-1.36-.368-.832-2.021-.812-.681-.042 1.025.705.445 1.959-.52.85-3.068-1.33 1.898 1.631.265 2.674-.715-.394-3.315-1.74-1.596-.05 1.836 1.363-2.358-.098-.353 1.217.765.763.853 1.665 2.08 1.607-.505.855-4.147-1.269-2.163.572 1.394.384 1.762 2.56-.016 1.261-.764-.622-2.982-1.484-1.562.255.198 1.103 2.629 1.871 2.377 2.45-1.145.09-3.409-3.438-3.195-.908-.432 1.618 3.584 2.595.928 2.94-1.055.167-3.609-2.692-3.047-.415.138 1.063 2.419 2.895.172 2.45-1.034.487 3.468.135 1.667 1.273 2.06 1.981-2.564 2.384-3.185.66-2.328-1.19.498 2.066 1.157 2.753 1.012.727 1.343 1.796-.254 1.169-.881-.264-3.314-2.378-3.255-1.347.281 1.766 1.685 2.34 2.966 3.14.916 2.153-2.206.155-2.908-.382-1.108-.352-.329 1.36-.197 1.73.65-.272.157 1.218 1.27 1.07.829 2.29-1.902.287-2.543-.726-1.482-.891-.556 1.737-.854 2.484.318.752 1.536.512 1.166 1.178.91-.044 1.711.916 1.981 1.548-1.411.385-2.455-2.211-3.237-1.523.3 1.563 1.527 3.56 2.516 3.56-.816 1.037-3.978-1.146-2.256 1.074.676 1.183 3.548 1.264 3.603 1.776-1.263.136-3.904-.372-4.306.153 1.528 1.156 3.016 2.49 4.53 3.511.962.268 3.54.43 3.446 1.064-2.274.562 2.028.14.024.68.923.198 2.998-.998 1.5.52 1.36.737 1.956-1.912 2.464-.318 3.08.468.171 3.773 1.11 5.519 1.212.53 1.523-.216 1.22-1.286zm3.43-4.282c-.135-1.79 4.179.17 1.168.056-.39.005-.78-.01-1.168-.056zm5.415-3.318c1.094.178.113 1.3 0 0zm-3.033-.98c.643-1.625 5.184-.155 2.22.173-.743.046-1.488-.046-2.22-.173zm-2.166.013c.539-.746.61.879 0 0zm-3.139-.406c.491-.332.39.632 0 0zm-9.208-.41c.722-1.006.722 1.004 0 0zm17.763-.283c.86-.836.787.488 0 0zm-17.87-.33c.55-.74.133.758 0 0zm16.895-.816c.667-1.034.768.699 0 0zm-.975-.216c.554-.47.303.765 0 0zm3.519-.225c-.934.467-2.708-.794-.749-.433.529-.307 2.209.718.749.433zm-22.22-.771c1.456-.767 1.834 1.124 0 0zm21.194-.827c.49-.332.389.633 0 0zm-1.085-2.86c.551-.738.134.759 0 0zm-.298-1c.186-1.583 4.109-.69 1.296-.04-.409.15-.883.23-1.296.04zm-21.688-1.055c.26-1.743 2.608.88.53.201-.163-.06-.433-.003-.53-.201zm20.537-.737c.867-.443.217.491 0 0zm-1.042-2.514c-.682-.679 1.577-.26.31-1.132.746 1.412 4.043-1.773 3.15.316-.967.737-2.264 1.06-3.46.816zm-12.563-2.45c.448-.783.447.785 0 0zm13.43-.203c.3-.75.897.8 0 0zm-2.503-2.671c-.046-1.893 1.494 1.056 0 0zm-1.072-.39c.552-.74.134.758 0 0zm-8.772-1.225c.432-.756.243.626 0 0zm8.556-.817c.346-.641.534.747 0 0zm1.245-.255c.709-.813.437.99 0 0zm.813-.369c.779-1.11 1.114 1.331 0 0zm-9.759-1.32c-1.064-1.003 2.341.871.171.073l-.108-.046-.063-.027zm2.61-2.251c.753-.621.414.752 0 0zm2.816-3.014c1.321-.943 1.321.938 0 0zm8.606 31.782c-.91-.278-.321.375 0 0zm-3.85-32.921c.68-1.534-1.148.859 0 0zm-3.24-6.17c-.978-.888-1.687.31 0 0zm-1.921-1.541c-.607-.331.36-.539-.582-.714-1.277-.041-.02 1.618.582.714zm.065-1.433c.665-.767-1.426-.63-.495.068-1.332.375.311.647.495-.068zm-.127-1.333c.78-1.335-1.336.453 0 0zm-.118-1.653c.13-1.765-.714.677 0 0z"/><path transform="matrix(.03342 .01926 -.02137 .03012 920.052 275.086)" d="M23.888 766.01l-141.21-207.2-139.78 208.17 108.83-225.9-250.17-16.966 250.05-18.695-110.39-225.14 141.21 207.2 139.78-208.17-108.83 225.9 250.17 16.966-250.05 18.695 110.39 225.14z" fill="url(#h)" fill-rule="evenodd"/><path transform="matrix(.02126 .03398 -.03772 .01916 939.169 299.53)" d="M-555.4 541.06a78.632 352.35 0 1 1-157.26 0 78.632 352.35 0 1 1 157.26 0z" fill="url(#i)" fill-rule="evenodd" opacity=".727"/><path transform="matrix(.04321 .00235 -.00262 .03894 934.028 268.727)" d="M-555.4 541.06a78.632 352.35 0 1 1-157.26 0 78.632 352.35 0 1 1 157.26 0z" fill="url(#j)" fill-rule="evenodd" opacity=".727"/><path transform="matrix(.02298 -.03305 .03669 .0207 899.778 256.526)" d="M-555.4 541.06a78.632 352.35 0 1 1-157.26 0 78.632 352.35 0 1 1 157.26 0z" fill="url(#k)" fill-rule="evenodd" opacity=".727"/><path transform="matrix(.02304 .0134 -.01472 .02098 996.83 164.759)" d="M23.888 766.01l-141.21-207.2-139.78 208.17 108.83-225.9-250.17-16.966 250.05-18.695-110.39-225.14 141.21 207.2 139.78-208.17-108.83 225.9 250.17 16.966-250.05 18.695 110.39 225.14z" fill="url(#h)" fill-rule="evenodd"/><path transform="matrix(.01464 .02366 -.02597 .01334 1010.002 181.791)" d="M-555.4 541.06a78.632 352.35 0 1 1-157.26 0 78.632 352.35 0 1 1 157.26 0z" fill="url(#i)" fill-rule="evenodd" opacity=".727"/><path transform="matrix(.02977 .00163 -.0018 .0271 1006.451 160.34)" d="M-555.4 541.06a78.632 352.35 0 1 1-157.26 0 78.632 352.35 0 1 1 157.26 0z" fill="url(#j)" fill-rule="evenodd" opacity=".727"/><path transform="matrix(.01583 -.02302 .02527 .01443 982.854 151.835)" d="M-555.4 541.06a78.632 352.35 0 1 1-157.26 0 78.632 352.35 0 1 1 157.26 0z" fill="url(#k)" fill-rule="evenodd" opacity=".727"/><path transform="matrix(.01268 .0073 -.0081 .01142 1106.208 7.816)" d="M23.888 766.01l-141.21-207.2-139.78 208.17 108.83-225.9-250.17-16.966 250.05-18.695-110.39-225.14 141.21 207.2 139.78-208.17-108.83 225.9 250.17 16.966-250.05 18.695 110.39 225.14z" fill="url(#h)" fill-rule="evenodd"/><path transform="matrix(.00805 .01288 -.01429 .00727 1113.454 17.065)" d="M-555.4 541.06a78.632 352.35 0 1 1-157.26 0 78.632 352.35 0 1 1 157.26 0z" fill="url(#i)" fill-rule="evenodd" opacity=".727"/><path transform="matrix(.01637 .00089 -.001 .01476 1111.493 5.4)" d="M-555.4 541.06a78.632 352.35 0 1 1-157.26 0 78.632 352.35 0 1 1 157.26 0z" fill="url(#j)" fill-rule="evenodd" opacity=".727"/><path transform="matrix(.00871 -.01253 .01391 .00785 1098.507 .776)" d="M-555.4 541.06a78.632 352.35 0 1 1-157.26 0 78.632 352.35 0 1 1 157.26 0z" fill="url(#k)" fill-rule="evenodd" opacity=".727"/><path transform="matrix(.03342 .0275 -.02137 .04302 934.73 32.982)" d="M23.888 766.01l-141.21-207.2-139.78 208.17 108.83-225.9-250.17-16.966 250.05-18.695-110.39-225.14 141.21 207.2 139.78-208.17-108.83 225.9 250.17 16.966-250.05 18.695 110.39 225.14z" fill="url(#h)" fill-rule="evenodd"/><path transform="matrix(.02126 .04852 -.03772 .02735 953.848 67.893)" d="M-555.4 541.06a78.632 352.35 0 1 1-157.26 0 78.632 352.35 0 1 1 157.26 0z" fill="url(#i)" fill-rule="evenodd" opacity=".727"/><path transform="matrix(.04321 .00337 -.00262 .0556 948.707 23.919)" d="M-555.4 541.06a78.632 352.35 0 1 1-157.26 0 78.632 352.35 0 1 1 157.26 0z" fill="url(#j)" fill-rule="evenodd" opacity=".727"/><path transform="matrix(.02298 -.0472 .03669 .02958 914.436 6.494)" d="M-555.4 541.06a78.632 352.35 0 1 1-157.26 0 78.632 352.35 0 1 1 157.26 0z" fill="url(#k)" fill-rule="evenodd" opacity=".727"/><g transform="matrix(.90545 0 0 .81585 1065.145 -330.66)" fill="url(#m)" fill-rule="evenodd"><path d="M-35.625 569.667l-9.554-14.019-9.457 14.084 7.363-15.284-16.926-1.147 16.918-1.265-7.469-15.233 9.554 14.019 9.458-14.085-7.364 15.284 16.926 1.148-16.918 1.265 7.47 15.233z"/><path d="M-39.815 555.288a5.804 26.009 27.999 1 1-10.25-5.45 5.804 26.009 27.999 1 1 10.25 5.45z" opacity=".727"/><path d="M-40.015 549.734a26.009 5.804 60.872 1 1-10.14 5.65 26.009 5.804 60.872 1 1 10.14-5.65z" opacity=".727"/><path d="M-44.993 547.534a26.009 5.804-.518 1 1 .105 11.608 26.009 5.804-.518 1 1-.105-11.608z" opacity=".727"/></g><path transform="matrix(.71467 0 0 .67336 1967.868 287.803)" d="M-482.08-122.68a121.2 121.2 0 1 1-242.4 0 121.2 121.2 0 1 1 242.4 0z" fill="url(#n)" fill-rule="evenodd"/><path transform="matrix(2.2255 0 0 2.2255 454.92 -72.762)" d="M476.74 140a7.537 7.537 0 1 1-15.075 0 7.537 7.537 0 1 1 15.075 0z" fill="url(#o)" fill-rule="evenodd"/><path transform="matrix(2.2255 0 0 2.2255 547.698 -95.554)" d="M476.74 140a7.537 7.537 0 1 1-15.075 0 7.537 7.537 0 1 1 15.075 0z" fill="url(#o)" fill-rule="evenodd"/><path d="M953.517 559.945c-4.338 8.5-9.552 9.86-15.217 6.59-8.996-5.002-20.117-.768-30.635-2.522-4.977 2.408-14.855 1.22-13.569 3.412 13.99 1.461-9.473-.233-13.087 1.114-1.53 2.011-9.67-.08-8.41 1.64 7.127.962-7.562 1.942 3.085 1.663 4.023 3.24 12.887-1.98 19.66 2.442-6.763-.046-16.466-1.43-22.889 1.42-.764.09-15.474.698-4.006 1.279-10.68 2.8 17.342-.001 14.19 1.926-6.373.3-15.07 1.193-14.316 2.476-7.133-.746-7.31 1.534.006 1.112 5.714 3.096-12.546-.904-12.7 4.156-5.062.15-13.924 1.776-3.687 1.263 5.998-.841-5.01 2.329 4.57.854 5.015 1.079 14.768-1.124 22.74 1.095-3.52 2.627-18.151 1.632-26.383 4.19 12.028-.245-15.632 2.212-1.224 1.443 10.454.182 16.7-.977 29.229.753 2.81 1.62-13.433 1.558-17.904 2.41-6.348.968-19.491-.07-18.754 2.636-9.214 2.272 15.854 1.258 20.56 1.815 8.31.58 2.09.101-2.096 1.7 5.474-.824 17.914 3.5 5.32 1.405-7.527.06-24.573-1.513-26.497 3.617 4.265 1.446 19.836-.027 14.795 3.764 3.724.826-11.305-2.08-14.486.773-7.22 2.614 14.929 2.017 1.824 2.967-14.403 3.885 19.579 4.446 2.583 5.152-12.546 2.269-2.123 7.649 3.755 7.044-7.391-3.823-15.086 4.536-4.018 5.13 9.93 4.426-13.428-1.836-3.277 4.011 6.615.77-8.407-.157-2.173 6.058 7.03-3.628 7.117 5.454 14.594 3.743 2.18-3.575 5.087-1.435 4.89-4.036 12.624-.922-10.459-2.943 2.434-2.928 6.246-.711-6.133-3.174 3.675-2.277 3.553-.15 24.664-3.502 11.157-3.182-7.818-1.422-13.596-.114-21.617.215-8.225 1.999 11.03-2.963 14.694-2.848 9.152 1.287 23.164-.075 29.225-1.38-2.103-.497-6.793.14-1.873-.783-6.325-.436 2.027-2.009-6.01-.86-9.098 1.736 7.013-2.286-2.778-.569-3.722-.94-12.902.232-14.004-.706 7.795-2.57 17.12-.791 24.053-1.465 5.21 1.172 17.207-.415 6.944-2.07-8.408 1.752 3.366-2.176-4.279-1.218-3.106-3.159-18.711.512-20.37-.983 11.184-2.51 22.484-1.976 33.684-2.536 3.015.154 17.203-.532 8.11-2.77 2.998-3.434-11.319-1.615-17.238-2.526-10.306.192 12.418-3.177 17.098-1.25 5.646 1.121 4.168-1.42 5.894-.895 7.49.849 19.255-1.62 8.673-3.53-5.917-.824-8.703.55-1.06-1.55-4.075-.733-15.871-.327-6.006-1.62 5.372-.016 24.448.273 15.44-1.308 9.798-1.957-8.613-.601 3.155-2.234 3.134.205 19.973 1.686 13.177-2.699-3.995 1.242 1.96-2.01-4.734-.601-5.365.757-10.94-.477-2.625-1 7.824-1.377 20.068.91 25.088-1.476-8.32-1.647-2.221-1.346-1.97-2.09-9.021.508.694-.97-2.032-1.05-4.158 1.447-14.217-.821-4.08-.99 8.84-.49 17.655-1.203 26.41-1.199-6.727-.051-3.633-1.875.747-2.39-5.693-1.675-12.45-.568-13.378-2.614-9.999-.09-15.337.416-26.88.125 10.806-1.671 21.884-3.202 32.842-2.113 5.108-2.517 13.658.238 14.489-1.857 15.324-1.189-14.853-.405-.513-1.242 9.583-2.168-19.804.796-7.619-3.28-3.938.895-17.84.978-16.455-.418-5.176 1.36-16.134 1.63-4.67.266 9.636-3.468 29.284-1.188 33.415-2.596 4.843 1.11 14.18.077 4.048-.628-5.168-1.38 15.633-.752 2.99-1.605 6.951-.838 5.15-.89-.763-1.033 6.211-.787-5.997-.765 2.21-1.286 5.279-.909-9.565.064-1.37-1.24-5.859.05-3.14-.782-6.986-.941 5.5-1.522 18.854-.52 20.123-2.023-2.815.008-5.695-.306-1.009-1.054-3.246.038-13.383 1.95-6.2-.102-5.165-.492 5.967-2.029-1.465-.89-3.932-1.377-18.486 3.158-11.796-.867-6.382-.735-15.786 1.976-17.018.91-3.837-1.402-17.493-1.716-26.126.32-15.387 4.113 14.451-7.384-.452-5.816l-12.873.257zm-55.324 13.221c1.496.865-2.838-.05 0 0zm-17.876 9.093c3.884.366 12.598.996 3.273 1.06-5.242.337-15.555-.132-4.7-.92l1.427-.14zm9.428 1.087c3.418-.33 1.006.874 0 0zm-30.847 2.326c2.886.82-2.933.104 0 0zm113.518 9.818c-2.333.878-4.708.176 0 0zm-11.232 6.374c2.336.264-3.928.16 0 0zm-17.654 1.208c4.513.582-7.507.014 0 0zm-81.69 9.788c7.368.693 1.535 1.499 0 0zm60.905 3.444c-.38 1.397-2.706-.469 0 0zm-69.985 13.05c1.929.83-2.514.196 0 0zm12.592.12c-1.565 1.964-1.298.11 0 0zm-9.966.394c2.935.099-1.862.876 0 0zm2.436.634c1.486.88-2.891-.071 0 0zM862 631.77c-4.137 4.75-4.996.762 0 0zm7.783 5.86c2.656.818-3.615.308 0 0zm-10.884.483c5.273.43-4.578 1.415 0 0zm-4.904.574c6.176.674-11.151 1.107 0 0zm-6.644 2.115c11.916 2.352-2.283 1.877 0 0zm-6.929 6.465c-1.664 4.839 10.696-.792 1.082.151l-1.082-.151zm3.797 2.507c-6.727-2.54-1.732 5.69-3.943 1.88-1.451-1.578 9.787-.966 3.943-1.88z" fill-opacity=".491"/><path d="M1739.58 512.57c4.463-.394 7.961 3.978 1.166 3.362-4.212 1.293-4.243 3.836.069 2.633-2.253 1.067-7.815 3.191-2.127 2.348-5.344 4.38 5.152 1.055 5.183 2.59 3.486 2.386 7.195 1.366 12.391.993 1.032 5.099 12.761 3.53 17.59 4.447 6.138-1.16 12.979 2.048 17.202 2.079 3.46-4.707 1.458 2.13 7.486-.482-7.936 2.764 5.97-.175.307 2.298 8.994-2.234 17.815 2.953 26.84 1.4-7.055-.184 3.68-1.604-3.35-1.302-9.652.094 6.174-1.975-2.463-1.518 4.3-1.413-11.53-.05-2.824-1.748-5.232.18-7.897-.621-1.02-1.21-3.034-.82-13.117-.277-3.6-.886 4.054-.7-12.735-1.243-3.539-2.095 6.753-.057-5.393-2.2-4.212-1.634-5.438 1.463-8.057-2.666-1.162-2.071 3.408-.94-16.23-.765-4.658-1.71 10.187-1.643-15.635-.467-3.55-1.885 5.098-1.236-14.439-1.58-2.384-1.753 9.873-1.978-16.873-1.386-5.985-2.077 6.549-.99-12.638-.5-3.818-2.246-3.914-1.214-15.396 2.14-5.572-1.473-9.54-.342-19.15 1.193-28.48 2.981-1.645.599-19.32-4.472-9.49-1.04zm3.413 3.771c1.686 2.21-5.7.476 0 0zm-1.141 4.24c-2.24.84-1.456-.899 0 0zm6.025-.96c-2.213 3.477-6.815.484 0 0zm2.95-1.042c-.477 1.149-1.72-1.292 0 0zm5.083-1.298c-.599.863-1.712-.947 0 0zm13.427-4.195c-.49 1.234-1.566-1.106 0 0zm-23.863 8.628c-.318 1.332-1.337-.6 0 0zm25.174-8.375c-.31.912-.99-1.115 0 0zm-21.66 8.48c.134 1.257-1.98-.978 0 0zm1.75-.358c-.641.903-1.29-1.094 0 0zm-4.408 1.793c5.403-1.85-1.381 1.291 0 0zm31.987-10.234c-2.508 1.65-2.488-.514 0 0zm-27.546 10.54c-.598.863-1.711-.947 0 0zm6.916.905c-.31.912-.989-1.115 0 0zm2.31.356c.306 3.19-4.482-.263 0 0zm31.792-9.838c-.606 2.547-2.993-1.207 0 0zm-26.812 10.181c-.728 1.142-.751-.475 0 0zm6.202.754c1.818 3.208-7.16 1.75 0 0zm21.905-4.784c.222 1.063-2.401-1.223 0 0zm-18.06 6.52c2.207.526-5.18-.175 0 0zm8.505.134c2.305.839-3.11-.071 0 0zm2.213-.318c-.311.911-.989-1.116 0 0zm14.374-3.582c.033.956-1.522-1.117 0 0zm-10.204 4.495c.424.855-3.078-.955 0 0zm-1.227.722c-.602 1.159-1.549-1.286 0 0zm-.415.572c-.689 1.42-2.382-1.106 0 0zm15.909-4.005c3.696.092-5.993.703 0 0zm.688 2.368c-.67 1.182-1.154-1.003 0 0zm1.85 2.847c-.7 1.656-2.792-.692 0 0zm-72.129-11.716c1.465.632.355-.854 0 0zm67.76 14.555c1.726 2.596.86-1.509 0 0zm16.156 1.525c1.168.415 2.709-1.238 0 0zm5.563-.15c3.359 1.395 1.548-1.541 0 0zm2.63.744c3.08 1.934.686-2.184 0 0zm2.705.603c1.48 1.9 1.277-1.419 0 0zm3.297.768c1.468 1.015 1.38-.615 0 0zM1692.145 546.976c3.146-.048 5.32 3.185.625 2.403-5.114 1.48-.272 1.712-.633 2.113-1.85.385-4.685 1.631-1.09 1.258-3.972 2.78 3.534.997 3.473 2.07 2.11 2.014 5.642.731 8.514 1.586.373 2.67 6.512 2.403 9.308 3.695 5.178-.222 9.83.186 13.637 2.611 2.27-.327 2.89-2.822 3.13-.082 2.986-1.715 3.898 1.137.49.647 2.775-.38 3.766.49 3.78.708 5.867-.62 12.069 3.238 17.468 2.36-2.945-.157-1.332-.61-.264-.784-3.333.07-6.222-1.084-1.205-1.122-3.453.06-1.471-.724-2.49-.764-4.437.071-3.24-.769-2.507-.923-4.35-.322-3.102-.634.293-.91-2.485-.529-9.075-.839-2.57-.717 2.868-.281-8.815-1.513-2.352-1.64 4.729.297-3.66-1.797-2.839-1.353-3.875.745-5.471-2.27-.696-1.503 2.439-.482-11.276-1.356-3.153-1.429 7.152-.634-10.45-1.07-2.556-1.492 4.883-.323-9.952-1.875-1.344-1.354 7.162-.917-13.006-1.88-3.392-1.768 2.266-.288-9.158-1.228-3.08-1.694-2.68-1.043-10.396.628-4.195-1.383-6.229-.148-13.329-.99-18.946 1.088-.534.463-11.503-4.183-7.406-1.621zm2.167 2.803c1.035 1.641-4 .029 0 0zm-1.038 2.9c-1.603.473-.97-.702 0 0zm4.257-.366c-1.737 2.31-4.785-.004 0 0zm2.118-.577c-.392.777-1.132-.986 0 0zm3.62-.648c-.485.587-1.238-.767 0 0zm9.603-2.247c-.406.834-1.035-.848 0 0zm-17.136 4.81c-.292.914-.902-.484 0 0zm18.036-4.568c-.264.62-.63-.825 0 0zm-15.59 4.82c.022.882-1.328-.782 0 0zm1.24-.162c-.493.598-.841-.825 0 0zm-3.176 1.028c3.87-1.016-1.034.83 0 0zm22.893-5.52c-1.84 1.022-1.708-.484 0 0zm-19.813 5.958c-.482.586-1.228-.765 0 0zm4.772.981c-.263.62-.63-.825 0 0zm1.59.365c.024 2.25-3.106-.421 0 0zm22.736-5.254c-.566 1.745-2.02-.993 0 0zm-19.281 5.745c-.568.76-.5-.369 0 0zm4.283.84c1.08 2.336-5.088.85 0 0zm15.551-2.23c.094.756-1.603-.977 0 0zm-12.969 3.635c1.517.479-3.612-.385 0 0zm5.926.523c1.647.688-2.178-.181 0 0zm1.561-.11c-.264.62-.63-.824 0 0zm10.23-1.77c-.029.669-1-.858 0 0zm-7.373 2.618c.244.62-2.093-.826 0 0zm-.897.442c-.48.777-1.014-.972 0 0zm-.323.378c-.555.955-1.604-.889 0 0zm11.325-1.99c2.541.252-4.203.188 0 0zm.345 1.688c-.527.79-.755-.757 0 0zm1.13 2.079c-.617 1.129-1.982-.62 0 0zm-49.643-11.82c1.598.428.322-.58 0 0zm46.433 13.58c1.066 1.891.675-1.01 0 0zm11.181 1.88c.788.347 1.967-.725 0 0zm3.89.176c2.27 1.143 1.16-.995 0 0zm1.79.652c2.047 1.503.595-1.49 0 0zm1.853.558c.934 1.398.963-.927 0 0zm2.257.702c.967.784.995-.36 0 0z" fill-opacity=".577"/><path transform="matrix(1.02597 0 0 1.29564 917.161 -1028.976)" d="M821.12 853.39a427.28 35.916 0 1 1-854.56 0 427.28 35.916 0 1 1 854.56 0z" fill="url(#p)"/><path transform="matrix(.98435 0 0 .96668 1078.399 -684.942)" d="M821.12 853.39a427.28 35.916 0 1 1-854.56 0 427.28 35.916 0 1 1 854.56 0z" fill="url(#p)"/><path transform="matrix(.7048 0 0 1.11289 1307.847 -586.566)" d="M821.12 853.39a427.28 35.916 0 1 1-854.56 0 427.28 35.916 0 1 1 854.56 0z" fill="url(#q)"/><path d="M1646.076 566.771c3.146-.048 5.32 3.185.625 2.404-5.114 1.479-.273 1.712-.633 2.112-1.85.385-4.685 1.632-1.09 1.258-3.973 2.78 3.533.998 3.472 2.07 2.111 2.015 5.643.731 8.515 1.586.372 2.67 6.512 2.403 9.308 3.695 5.178-.221 9.83.186 13.637 2.612 2.27-.328 2.889-2.822 3.13-.083 2.986-1.715 3.897 1.138.49.648 2.775-.38 3.766.488 3.78.707 5.867-.62 12.069 3.238 17.467 2.36-2.945-.156-1.332-.609-.263-.783-3.333.068-6.223-1.084-1.205-1.123-3.454.06-1.472-.723-2.49-.764-4.437.072-3.24-.768-2.508-.922-4.35-.323-3.101-.635.293-.91-2.485-.53-9.074-.84-2.57-.718 2.87-.281-8.814-1.513-2.352-1.64 4.73.297-3.66-1.797-2.838-1.353-3.876.745-5.472-2.27-.696-1.503 2.44-.482-11.277-1.355-3.154-1.429 7.208-.627-10.875-1.117-2.368-1.494 3.641-.6-9.983-1.833-1.563-1.343 6.915-.976-12.922-1.876-3.36-1.776 2.266-.289-9.158-1.23-3.081-1.695-2.68-1.043-10.396.628-4.194-1.382-6.23-.15-13.329-.99-18.947 1.087-.533.463-11.502-4.183-7.405-1.62zm2.167 2.803c1.035 1.642-4.001.029 0 0zm-1.038 2.9c-1.604.474-.97-.702 0 0zm4.257-.366c-1.737 2.31-4.785-.004 0 0zm2.118-.577c-.393.777-1.131-.985 0 0zm3.619-.648c-.483.587-1.231-.766 0 0zm9.604-2.247c-.406.835-1.036-.847 0 0zm-17.136 4.81c-.292.914-.903-.483 0 0zm18.036-4.568c-.264.62-.63-.824 0 0zm-15.59 4.82c.023.883-1.329-.782 0 0zm1.24-.161c-.492.597-.842-.826 0 0zm-3.177 1.027c3.872-1.016-1.035.83 0 0zm22.894-5.52c-1.841 1.023-1.707-.484 0 0zm-19.813 5.958c-.483.588-1.235-.766 0 0zm4.772.982c-.264.62-.63-.826 0 0zm1.59.365c.023 2.25-3.105-.422 0 0zm22.736-5.254c-.566 1.745-2.021-.994 0 0zm-19.281 5.745c-.568.76-.5-.37 0 0zm4.283.84c1.08 2.335-5.089.85 0 0zm15.55-2.23c.094.755-1.602-.978 0 0zm-12.968 3.634c1.518.48-3.613-.384 0 0zm5.925.524c1.642.688-2.177-.183 0 0zm1.562-.11c-.264.62-.63-.825 0 0zm10.23-1.772c-.029.67-1.001-.857 0 0zm-7.374 2.62c.244.62-2.092-.826 0 0zm-.896.441c-.48.777-1.014-.972 0 0zm-.323.378c-.555.955-1.603-.887 0 0zm11.325-1.989c2.552.252-4.21.187 0 0zm.345 1.687c-.527.79-.755-.757 0 0zm1.129 2.079c-.575 1.119-1.922-.624 0 0zm-49.643-11.82c1.382.444.35-.585 0 0zm46.433 13.58c1.066 1.892.677-1.01 0 0zm11.182 1.88c.791.347 1.961-.724 0 0zm3.889.176c2.271 1.143 1.16-.995 0 0zm1.791.653c2.047 1.503.593-1.49 0 0zm1.853.557c.934 1.398.962-.926 0 0zm2.256.702c.969.784.995-.36 0 0zM1581.127 566.42c4.426.94-.076 1.611-.947 2.48 2.948.35-3.2 1.372.241 1.226-1.772 1.658 3.65 1.16 4.78 2.117 4.212.623 8.246 3.276 13.043 2.722 3.382 1.445 5.922.66 8.308 1.416-2.893 1.1 4.272.614 6.051 1.59 2.72 1.024 7.453 1.218 5.26.362-1.966.085-2.099-.992.005-.703-1.939-.383-6.866-1.41-3.02-1.667-1.837-.341-4.86-.447-1.356-.554-1.951-.469-4.55-.983-.882-1.055-1.593-.693-7.835-1.262-3.042-1.864-2.522-.45-5.505-.768-1.133-.938-.902-.495-6.495-.562-2.045-.922-2.639-.883-4.361-.678-.525-.979-.813-.768-7.545-.784-2.979-1.002-.707-.26-5-.692-2.15-1-1.124-.533-6.22.222-2.693-.887-4.674-.8-9.484.619-13.947.257-.453-.059-5.05-1.994-2.97-.6zm1.39 1.799c.266 1.365-2.2-.433 0 0zm-.666 1.861c-.935.405-.585-.52 0 0zm2.733-.235c-1.277 1.583-2.48-.37 0 0zm1.36-.37c-.368.528-.582-.763 0 0zm2.323-.416c-.397.423-.67-.62 0 0zm6.165-1.443c-.322.579-.565-.656 0 0zm-11 3.089c-.16.63-.564-.384 0 0zm11.578-2.933c-.25.403-.31-.606 0 0zm-10.009 3.094c-.13.615-.747-.675 0 0zm.797-.104c-.375.418-.43-.616 0 0zm-2.04.66c2.683-.98-.425.626 0 0zm14.698-3.544c-1.077.725-1.023-.404 0 0zm-12.72 3.825c-.399.435-.742-.66 0 0zm3.064.63c-.25.403-.31-.606 0 0zm1.02.235c-.065 1.436-1.78-.484 0 0zm14.597-3.373c-.384 1.086-1.083-.692 0 0zm-12.379 3.688c-.266.54-.367-.26 0 0zm2.75.539c.248 1.784-2.864-.028 0 0zm9.983-1.431c-.006.54-1.067-.85 0 0zm-8.325 2.333c.824.388-2.583-.424 0 0zm3.804.336c.99.477-1.451-.184 0 0zm1.002-.07c-.25.402-.31-.607 0 0zm6.567-1.138c-.177.44-.52-.692 0 0zm-4.733 1.682c-.056.464-1.294-.775 0 0zm-.576.283c-.39.533-.524-.735 0 0zm-.207.243c-.441.687-.884-.744 0 0zm7.27-1.277c1.305.266-2.92-.001 0 0zm.222 1.083c-.336.556-.438-.556 0 0zm.725 1.334c-.417.818-1.11-.606 0 0zm-31.87-7.587c.93.44.312-.443 0 0zm29.809 8.717c.513 1.337.548-.663 0 0zm7.179 1.207c.48.317 1.18-.624 0 0zm2.496.113c1.422.803.73-.652 0 0zm1.15.42c1.18 1.112.46-1.013 0 0zm1.19.357c.47.994.665-.651 0 0zm1.448.45c.535.565.62-.304 0 0z" fill-opacity=".577"/><path d="M955.54 298.993c-.842 4.67 2.004 16.3-5.505 8.277-1.08.008 9.187 17.647 2.17 11.237-.852-5.627-3.842-5.411-6.321-3.805-8.463-3.286 2.084 7.722-1.354 9.058 6.608-.007 4.385 4.659-.68 2.268 8.116 11.042-10.433 1.653-10.573 4.5 7.841 3.333-5.223 2.522 1.633 5.883 10.987 3.843-7.361 4.61.926 7.447 3.924 1.332 12.3-1.83 9.517 2.887 5.231-.48 5.004 3.588 9.998.333 2.565 11.423-22.474-3.594-18.128 3.438-5.213.201-13.127-7.84-16.928-1.46-11.297.848 2.719 4.573 5.65 3.973-9.272 7.457 12.076-2.859 2.61 3.302 1.629 7.7 17.326-5.62 7.2 3.384 4.025 4.788 18.779-5.766 19.605-3.32-5.296 8.005-15.39 8.12-22.957 5.87 5.023 5.317-8.717-1.627-12.392 2.46-5.072.115.713 4.123.217 4.92 5.727 1.594 15.022 7.465 3.216 5.617-5.117-.06 2.776 9.208-5.597 3.82-4.226-2.346-1.951 4.074-7.801 1.232-5.315 1.303 8.42 7.133 11.564 7.957 6.081-.134 12.314 10.287 15.438 7.5-7.849 6.603-18.311.535-27.022 4.13-3.628 2.777 9.161 8.404 10.253 8.924 12.66 5.583-15.69-.434-13.844 4.677 7.787 4.635 14.742 10.555 22.889 3.98 2.741 1.996-4.86 1.37-1.646 6.233-8.059 3.662-23.313 4.225-27.88 8.533 6.622 6.42 13.997 7.14 22.322 8.42 4.35-1.592 2.636-2.85 6.417-1.88 3.12 1.714 5.545-4.465 9.068-.29-3.759 4.017-23.735 3.389-11.023 8.182-10.515 2.93-21.908.649-32.58 2.967-6.237 2.82 7.304 2.193-.237 5.714-3.279 4.016 12.327-.204 10.163 4.37 5.11-.875 7.552 1.244 11.59.214-.299 5.508 5.859-1.858 6.815 3.087 5.235-.775 13.067 2.408 4.113 4.35-9.549 2.43-18.85 1.45-27.534 1.707-5.626-1.894-13.339-.453-3.276 2.07 8.119.953-7.727 1.594 2.184 3.622 1.552 4.742 9.994 1.001 13.305 4.977 7.46-3.65-2.455 3.66 5.05 1.92 8.005 1.498-13.135 7.852-17.76 4.603-4.703.32-10.67.195-13.79 1.859 8.384 3.815-14.461-1.307-5.15 3.33 5.67 0 6.723.748 3.305 5.303 2.645 4.737 19.984 2.866 10.062 7.737-4.77-.328-11.632 2.491-2.566 2.928 7.127-1.964-6.224 5.713 2.439 3.482 2.553 3.938 6.965.688 8.431 3.267 5.98 2.866-16.327 1.164-18.895 2.558 8.68 3.283-11.97 3.613-1.544 5.934 3.505-.881 10.47-2.047 4.418 2.825 4.766-1.587 7.198 1.51 8.725 2.913 2.75-2.328 7.004-2.212 3.988 2.437 4.773-1.926 10.487-8.812 8.068-1.922 9.454-3.224-5 5.932-8.761 2.144-7.586-1.053-13.57 1.215-17.637 4.04 9.817-.507-10.837 6.457.048 4.981 6.224-2.753 3.499-.272 3.65 2.527 3.676-1.71.423 4.039 5.615.656 4.61 1.806 10.513.146 15.77.997-5.787-.32-14.793 5.58-3.491 3.52-7.698 4.36 1.131 4.783 5.015 2.082-4.961 8.851 12.142 3.104 12.707 4.051-.894 6.338 8.465-6.445 7.705 2.382 7.545-2.467 13.559-3.922 18.717-8.743 3.61 4.02 8.208-11.955 11.115-2.258-.572 6.568-8.361 18.252 4.755 14.755 6.287.433 12.894 1.228 8.897-6.886-2.027-8.441 3.849-2.173 6.084-2.003 5.612 5.912 16.965 3.705 23.29 2.489-.886-5.461 5.096-1.377 7.832-2.046 2.73 3.017 8.112 3.288 9.982 2.297 4.75 3.33.922-10.454 5.748-2.895 3.507 1.97 10.357-.196 12.255 1.115-.379-4.21 4.299-2.114-.45-5.45 1.438-.171 12.13 4.66 6.424.235 9.69.216 6.092-3.975-1.369-2.886-5.476-.474-15.244-3.361-8.844-5.035 1.396-1.377 9.104 0 3.356-2.868 3.888 1.737 9.405-2.411 2.157-2.44 4.458-.494 4.322-4.674 10.364-2.737-7.19-3.002-2.468-2.911.371-3.906-5.44-.361-12.868-3.133-2.393-3.432 10.396-4.138-2.154-2.182-5.416-2.106 5.553-6.825-8.36 2.98-12.66.47-7.519.599-24.556-6.838-24.845-9.472 2.57-.47 10.362 5.895 7.98-.333 7.66 6.677 12.035-5.263 19.54 2.664-10.198-11.707 26.148-3.43 9.654-9.865-1.963-1.054 19.103.016 5.237-2.718-4.66.522 6.522-3.542-.658-2.516-12.802-1.213-24.227-.392-37.355-4.976-8.244-1.654-7.42-6.03.465-3.85 10.04 2.393 13.232.642 22.635.685 2.092-6.594 23.577-2.59 14.44-11.132 4.829-2.67 10.715-4.047 1.57-2.868-8.78-.227-19.21-1.235-26.495-5.271 1.879-4.23 14.71 2.893 9.13-2.917 3.16.473 9.02-.955 2.388-2.265 5.765-.469 15.317-9.915 3.302-5.571-6.096-3.596-22.821 2.308-23.152-5.507 8.848 1.68 18.468.273 18.742-11.04-6.102.79-15.6 6.426-19.53-.737 2.637 1.8 8.261.446 4.008-3.068 4.63 1.002 7.1-7.57.719-3.477-4.748.918-21.663 1.227-17.715-3.294 4.394 1.541 14.679-.516 6.877-4.768 5.46 1.889 16.808-4.275 15.011-8.162-3.982-4.478-9.037-1.174-13.326-2.013 5.4-3.534-.05-1.296-1.578-4.003-4.138 7.728-23.822.34-20.041-2.356 9.085-.028 15.686-.244 24.03-2.744-2.34-6.102 15.034-8.624 2.139-10.022-2.843-5.882-15.842 4.668-12.88-4.87-7.785 6.206-24.544-.935-26.383-4.728 7.419 2.299 9.196-.204 15.407 1.21-.765-2.6 5.572 4.774 8.124-1.194 6.207-.227 1.5-9.267 8.584-4.61 1.782-3.947 11.733-5.932 1.993-6.043-2.801-2.737-8.79 3.288-9.32-2.567-6.639 6.14-18.369 4.4-22.429-2.983 3.786-.34 12.66 5.377 12.616-1.623 3.668 3.715 11.615 2.55 3.989-1.35 5.081 3.691 11.617.222 10.844-3.02 12.224-1.48-6.159-5.769-9.846-2.773-4.519-9.663-17.224 4.247-19.553-3.614-2.426-1.247-14.719-6.615-9.37-8.408.82 3.647 6.06 8.183 5.812 1.545 3.086 8.828 8.323-2.906 13.184 4.478 2.223-4.806 9.96 1.744 12.173-5.07-4.518-3.639-17.047-7.472-18.044-6.47 4.692-3.9 8.376-5.359.452-6.429-.95-2.908 14.814-4.364 3.98-8.254 7.96-2.896-2.63-5.653 1.982-9.88-8.622.31-12.749 5.986-18.2 12.865-6.356 1.176-5.424-17.608 1.954-10.83 7.916.44 5.68-5.733-.51-5.973 3.196-.382 14.197-.784 5.045-3.359 6.596-6.423.08-3.129-4.123-2.224-2.858-4.102-8.048 11.559-6.124.54 1.41-4.607 10.511-13.317.44-6.732-4.32.324 1.61-7.592-4.17-9.027zm-5.302 23.599c5.46.55 4.236 11.996 1.876 3.34-.303-1.147-2.387-1.867-1.876-3.34zm-1.907 9.877c5.774.121 7.043 8.448 1.132 2.677.048-.012-2.93-2.54-1.132-2.677zm21.36 5.485c2.16 5.847-16.806 6.117-4.23 3.477 1.757-.752 2.538-2.636 4.23-3.477zm-9.066 9.625c4.993.556 10.056 3.39 1.69 1.269l-1.69-1.269zm8.577 1.66c5.74-1.378-.872 4.963 0 0zm11.779 2.46c2.542 1.687-3.546.826 0 0zm-18.401 10.76c3.07 4.527-1.918 9.695-.416 1.679l.416-1.68zm-5.963 8.973c2.334 1.5-3.545 1.194 0 0zm6.305 1.429c1.35 3.501-1.216 1.972 0 0zm-9.726.357c2.66 1.084-2.865 1.336 0 0zm-3.91 1.345c2.66 1.084-2.865 1.336 0 0zm-16.276.021c3.145 3.684 20.145-.654 8.136 3.515-2.782.568-10.424 1.672-8.136-3.515zm71.748 35.62c2.885 1.258-1.794 1.81 0 0zm-65.37 8.07c-6.098 4.604-9.061 1.56 0 0zm67.519 28.728c8.068.886-8.29.826 0 0zm17.497 3.636c4.412-.082-2.52.987 0 0zm.195 16.749c5.417-.343 1.36 2.687 0 0zM888.386 494.56c1.683 1.893-5.016.537 0 0zm12.634 5.78c3.559 4.042 9.224.555 14.083 2.374 2.327.91-22.474 4.924-14.083-2.375zm18.181.735c2.608 1.214-5.233.72 0 0zm-7.942 27.72c2.334 1.5-3.545 1.194 0 0z"/><path transform="matrix(1.4169 0 0 1.4169 837.307 -32.463)" d="M476.74 140a7.537 7.537 0 1 1-15.075 0 7.537 7.537 0 1 1 15.075 0z" fill="url(#o)" fill-rule="evenodd"/><path transform="matrix(1.4169 0 0 1.4169 861.936 -61.717)" d="M476.74 140a7.537 7.537 0 1 1-15.075 0 7.537 7.537 0 1 1 15.075 0z" fill="url(#o)" fill-rule="evenodd"/><path transform="matrix(1.4169 0 0 1.4169 915.799 -46.254)" d="M476.74 140a7.537 7.537 0 1 1-15.075 0 7.537 7.537 0 1 1 15.075 0z" fill="url(#o)" fill-rule="evenodd"/><path transform="matrix(1.06978 0 0 1.4169 1061.594 -28.458)" d="M476.74 140a7.537 7.537 0 1 1-15.075 0 7.537 7.537 0 1 1 15.075 0z" fill="url(#o)" fill-rule="evenodd"/><path transform="matrix(1.13104 0 0 1.00853 935.123 68.718)" d="M476.74 140a7.537 7.537 0 1 1-15.075 0 7.537 7.537 0 1 1 15.075 0z" fill="url(#o)" fill-rule="evenodd"/><path transform="matrix(2.2255 0 0 2.2255 436.257 -126.893)" d="M476.74 140a7.537 7.537 0 1 1-15.075 0 7.537 7.537 0 1 1 15.075 0z" fill="url(#o)" fill-rule="evenodd"/><path transform="matrix(2.2255 0 0 2.2255 500.69 -160.854)" d="M476.74 140a7.537 7.537 0 1 1-15.075 0 7.537 7.537 0 1 1 15.075 0z" fill="url(#o)" fill-rule="evenodd"/><path transform="translate(856.65 -43.611) scale(1.59016)" d="M476.74 140a7.537 7.537 0 1 1-15.075 0 7.537 7.537 0 1 1 15.075 0z" fill="url(#o)" fill-rule="evenodd"/><path transform="matrix(1.4169 0 0 1.4169 888.073 73.467)" d="M476.74 140a7.537 7.537 0 1 1-15.075 0 7.537 7.537 0 1 1 15.075 0z" fill="url(#o)" fill-rule="evenodd"/><path d="M1554.066 159.102c.212-.007.398.013.58.08.146.082.256.17.366.267.187.125.29.296.405.451.237.37.612.663 1.008.866l.137-.075.078-.112c.103-.103.157-.221.234-.334a2.452 2.452 0 0 1 1.135-.895c.183-.06.426-.061.61-.022.06.013.101-.01.157.018.208.076.373.243.504.433a.494.494 0 0 1 .08.37 4.181 4.181 0 0 1-.182.806l-.561 1.411-.068.158c-.092.22-.144.467-.262.677-.352.633-.801 1.215-1.248 1.785-.43.604-.805 1.187-1.08 1.849-.092.22-.137.484-.202.714-.102.245-.133.543-.182.807-.017.616-.092 1.067-.119 1.566.013-.25.03-.074.02.092a4.87 4.87 0 0 1-.131 1.038c-.046.182-.14.286-.165.418-.05.264-.13.571-.231.816-.041.098-.106.172-.146.27l.416.498c.105.18.195.345.356.461.183.209.34.387.534.572.184.208.436.41.692.589.094.063.225.172.355.22a1.5 1.5 0 0 0 .58.08c.291.023.566-.02.845-.115.306-.085.561-.15.815-.254.026.01.127-.05.235-.094.119-.07.254-.1.373-.169l.362-.215c.165-.108.325-.227.49-.336.221-.172.34-.264.48-.382.046-.04.192-.165.342-.307.242-.222.484-.42.674-.661.472-.56.917-1.201 1.228-1.878.04-.098.123-.249.174-.371.071-.172.084-.292.155-.464.141-.485.325-.948.503-1.448.091-.22.24-.415.39-.557.077-.113.128-.19.195-.28.097-.161.255-.31.42-.418.139-.118.286-.242.44-.327.165-.108.338-.122.54-.104a.333.333 0 0 1 .158.017.707.707 0 0 0 .177.11.423.423 0 0 1 .139.167c.053.16.067.224.11.268a.391.391 0 0 1 .04.185c-.045.18-.053.36-.134.556-.191.749-.432 1.5-.685 2.254l-.32.882a1.24 1.24 0 0 0-.034.778c-.005.083.075.171.158.259s.203.191.307.23c.13.048.26.058.374.072.212-.007.386.01.609-.022a3.75 3.75 0 0 0 .765-.245c.569-.214 1.078-.401 1.589-.693a7.718 7.718 0 0 1 1.363-.554.39.39 0 0 1 .305-.01c.094.062.179.14.247.193.067.053.143.083.138.166a.968.968 0 0 1 .032.38c-.025.131-.075.239-.126.361-.01.025-.008.053-.029.102-.05.123-.13.261-.164.418 0 0-.03.031-.04.056-.03.073-.027.13-.057.204-.067.088-.198.178-.254.242-.087.137-.16.262-.273.39a2.881 2.881 0 0 1-.343.308c-.185.157-.405.309-.616.457-.32.192-.624.365-.98.43-.316.11-.69.171-1.022.247-.124.01-.196.037-.294.057-.239-.003-.469-.027-.718-.006-.285.037-.593.053-.904.08-.259.045-.557.038-.806.059-.196.04-.444.124-.677.18-.222.03-.441.083-.638.123-.26.046-.455.078-.688.133-.729.24-1.436.503-2.118.845a5.317 5.317 0 0 0-1.965 1.78c-.118.21-.19.364-.282.584s-.196.448-.262.678c-.074.396-.111.805-.15 1.186-.049.406-.076.79-.15 1.186.001.142-.045.308-.106.455-.106.328-.177.609-.309.928-.02.049-.076.14-.107.213a7.943 7.943 0 0 1-2.116 2.966l-.959.764-1.018.728c-.913.539-1.88 1.049-2.931 1.34l-1.923.565c-4.554 1.444-5.207 2.68-6.872 3.32l-.168-.171c-.063.368-.08.59-.016.63.343.213 2.8 6.662 3.833 10.057 1.8 5.918 3.823 8.279 7.275 8.474 1.942.11 5.2 2.341 6.74 4.624.682 1.01 5.338 2.21 9.54 2.443 1.477.081 2.85.253 3.1.363s2.865.234 5.801.322 6.858.316 8.703.483 3.687.25 4.13.164c1.159-.225 2.344-1.68 3.864-4.8.765-1.57 1.81-3.082 2.496-3.569 1.795-1.275 5.576-2.657 6.21-2.264.724.45.465.892-1.354 2.239-1.777 1.316-3.19 3.436-2.962 4.48.082.378-.1.948-.435 1.29-1.515 1.538-1.63 2.759-.603 6.143.952 3.141.945 3.247.153 6.094-1.036 3.727-.694 5.465 1.299 6.884 1.451 1.035 5.045 1.815 7.46 1.592 1.009-.093 1.487.175 3.089 1.957 1.041 1.16 2.646 2.592 3.557 3.168 2.44 1.542 8.106 3.829 9.036 3.649.443-.086 1.432.067 2.223.34 1.602.552 4.102 2.45 3.802 2.88-.107.152-.962.427-1.914.611l-1.718.333.559 1.387c.547 1.33.539 1.43-.482 1.78-.59.203-1.318.33-1.62.315s-.688.037-.855.069-.817-.234-1.458-.585-1.747-.878-2.454-1.164c-2.471-.997-6.266-3.406-7.006-4.428-.41-.566-2-1.629-3.494-2.409-2.657-1.389-2.768-1.459-6.505-1.198-2.099.147-4.643.36-5.63.465-6.097.653-8.69-.186-11.838-3.83-2.892-3.347-5.297-4.08-11.089-3.443-2.184.24-4.123.605-4.33.791s-.845.359-1.394.415c-1.253.129-5.3-.177-6.452-.485a779.285 779.285 0 0 1-10.417-2.947c-1.199-.354-2.473-.678-2.826-.754s-1.086-.342-1.655-.548c-.612-.221-2.111-.18-3.666.084-2.7.46-4.685.195-9.356-1.369-4.726-1.58-7.235-.971-12.006 2.906-1.826 1.484-3.56 2.715-3.798 2.761s-1.068.905-1.886 1.909c-1.436 1.763-1.591 1.851-4.292 2.375l-2.798.542 1.354-1.998c.751-1.097 1.728-2.178 2.14-2.392s1.238-1.018 1.856-1.806 2.149-2.046 3.386-2.778 2.192-1.445 2.153-1.623c-.1-.456-.56-.342-4.573 1.32-4.54 1.88-7.094 2.433-9.544 1.995-1.068-.19-1.949-.492-1.98-.629-.148-.661 6.485-3.258 9.76-3.82 3.038-.52 8.751-2.342 10.282-3.295 1.556-.967 1.231-.915 9.834-1.134 1.6-.041 3.188-.273 3.575-.5 1.033-.607.948-2.061-.29-4.38-.604-1.129-1.349-2.527-1.66-3.15s-1.078-1.657-1.675-2.279c-2.175-2.262-2.294-3.21-.97-7.72 1.159-3.942 1.17-4.163.42-5.578-.428-.807-1.126-1.704-1.565-2.01-.826-.58-6.485-2.07-7.275-1.917-.558.108-1.075-.666-1.349-1.957-.385-1.816.012-2.159 3.512-2.899 2.471-.522 5.066-1.33 6.919-2.064l-.985-.291-4.153-.738c-.752-.137-1.54-.289-2.39-.405a6.277 6.277 0 0 1-1.911-.546c-.396-.202-.788-.39-1.164-.642-.333-.208-.42-.582-.25-.915a.94.94 0 0 1 .743-.579c.445-.061.853.035 1.27.188l-.39-.84-.338-.85-.192-.88c-.264-1.17-.39-2.367-.316-3.555l-.654-.886c-.173-.233-.275-.501-.329-.804s.127-.64.458-.715c.341-.1.634-.051.905.162l1.076.707c.365.276.797.48 1.213.633.312.115.619.198.925.255l-.387-.6-.349-.897-.42-1.22-.18-.592c-.055-.303.125-.599.398-.753a.758.758 0 0 1 .728.052c.281.189.543.436.722.728.304.423.552.865.794 1.293.258.462.603.886.99 1.254.68.675 1.2 1.202 1.77 1.779a5.11 5.11 0 0 0 1.727 1.112c.078.028.155.06.217.054a.82.82 0 0 0 .873-.218.726.726 0 0 0 .195-.278c.051-.123.045-.238.018-.39a4.146 4.146 0 0 1 .06-1.361c.09-.504.341-.954.68-1.338.294-.344.82-.347 1.082.032.132.19.224.481.211.73a53.341 53.341 0 0 0-.064 4.16l4.935 1.743.774-.44 1.174-.95c.98-.77 1.86-1.64 2.61-2.58.513-.658.934-1.377 1.275-2.127a.657.657 0 0 0 .117-.167c.224-.54.317-1.066.364-1.614.021-.557-.056-1.141-.304-1.628-.19-.41-.455-.813-.666-1.173-.367-.56-.738-1.094-1.208-1.55-.496-.465-1.076-.801-1.717-1.065-.473-.232-1.045-.492-1.597-.752-.354-.158-.603-.233-.837-.32-.416-.153-.775-.287-1.211-.392a24.012 24.012 0 0 1-1.96-.536l-.866-.218c-.426-.129-.826-.404-1.135-.744-.225-.252-.28-.558-.133-.842.153-.368.501-.638.92-.709.394-.08.848-.123 1.268-.053.483.065.948.2 1.447.298l3.285-1.36-.21-.73a7.369 7.369 0 0 1-.389-2.48c.008-.308.234-.572.507-.726a.806.806 0 0 1 .718.006c.234.086.442.255.563.47.153.282.259.608.35.896.1.405.264.768.448 1.118s.361.65.566.952c.131.19.305.4.436.59l.305-.01.531.09 1.526.426 1.488.484 1.85.509c.583.186 1.21.258 1.78.185l.294-.298c.17-.192.25-.398.33-.594.021-.05.059-.063.079-.112.066-.23.134-.443.163-.658.066-.23.068-.498.045-.732-.007-.2-.02-.404-.072-.565a.522.522 0 0 0-.159-.258c-.11-.097-.237-.177-.326-.323-.116-.155-.264-.357-.416-.498-.162-.116-.342-.246-.494-.386l-.81-.663-.622-.506c-.313-.257-.617-.578-.811-.904-.157-.199-.233-.359-.328-.563s-.089-.484.055-.686a1.064 1.064 0 0 1 1.315-.303c.99.506 1.877 1.123 2.666 1.894a.687.687 0 0 0 .237.147c.052.02.079-.01.157.018.415.012.88-.185 1.058-.543.118-.21.203-.43.321-.64.01-.025.03-.032.039-.056.102-.245.107-.483.094-.742a1.113 1.113 0 0 0-.23-.582c-.188-.267-.349-.504-.574-.757a5.892 5.892 0 0 1-.912-1.366.599.599 0 0 1 .026-.583c.097-.162.255-.31.42-.42.119-.069.242-.074.393-.075zm-9.982 12.88a.615.615 0 0 0-.372.168c-.082.054-.072.2.011.287.387.369.789.702 1.196 1.022.39.286.811.513 1.233.725.13.048.26.13.384.119.503.016.999.048 1.455.103.125-.01.283-.031.413.017.026.01-.005.083.02.092.26.096.466.237.613.46.057.078.124.16.11.268s-.135.274-.175.372c-.01.024.01.046.01.046-.092.22-.22.396-.32.64-.098.163-.11.354-.145.51l-.028.344c.075.253.156.57.231.823.198.75.261 1.527.2 2.324l.003.481c.476-.135.968-.289 1.423-.517.237-.138.505-.298.784-.393.207-.065.4-.098.609-.021.312.115.53.428.476.775-.025.132-.054.332-.105.455-.04.098-.09.134-.156.223-.128.235-.31.401-.547.54-.512.292-.961.616-1.43.952s-.956.675-1.41 1.045c-.876.665-1.697 1.406-2.385 2.198-.505.492-.99 1.028-1.505 1.545l-.636.605.06.037a31.315 31.315 0 0 0 5.634-1.381 11.7 11.7 0 0 0 1.951-.909c.758-.455 1.487-.993 2.104-1.613a7.905 7.905 0 0 0 1.19-1.58c.108-.187.2-.39.282-.586.264-.637.351-1.35.371-2.049a6.284 6.284 0 0 0-1.182-3.772 7.044 7.044 0 0 0-1.937-1.843 12.587 12.587 0 0 0-2.534-1.293c-.251-.1-.524-.192-.778-.283a22.582 22.582 0 0 0-2.354-.7l-.423-.063c-.14-.024-.257-.03-.423-.063-.088-.004-.23.01-.354.02a6.673 6.673 0 0 1-1.003-.143 3.044 3.044 0 0 0-.56.012zm-18.752 12.554a5.873 5.873 0 0 0-.055 2.325 5.271 5.271 0 0 0 1.333 2.587c.193.184.415.388.681.543.198.1.39.137.562.228l.335.128.167.064.354-.02a1.488 1.488 0 0 0-.192-.88 3.385 3.385 0 0 1-.43-1.266c-.011-.117-.023-.22.028-.343.07-.171.233-.261.44-.326a1.49 1.49 0 0 1 .875.023c.078.029.149.072.227.1.343.184.635.431.928.737.303.281.624.595.87.94.221.336.431.662.626.988l.228.342c1.109.578 2.305.981 3.546 1.241l.905.162.58.08c.014-.249.028-.542-.073-.805-.106-.322-.193-.656-.408-.933-.263-.38-.644-.76-1-1.06a6.994 6.994 0 0 0-1.51-1.058 35.997 35.997 0 0 0-3.105-1.567l-.621-.266-.453-.201-1.005-.384-2.443-.877-1.39-.502z"/><path d="M1430.861 155.028c.21-.03.398-.03.587.017.155.065.274.14.395.225.202.104.325.263.458.405.28.341.69.592 1.107.75l.127-.09.064-.119c.09-.113.129-.237.192-.357a2.405 2.405 0 0 1 1.018-1.013 1.26 1.26 0 0 1 .603-.087c.062.006.1-.021.158 0 .216.054.4.201.553.376a.5.5 0 0 1 .126.358c.002.3-.031.535-.082.821l-.386 1.463-.048.164c-.064.229-.086.479-.177.701-.273.667-.648 1.294-1.022 1.909-.354.646-.655 1.266-.847 1.953-.064.23-.077.496-.114.732-.07.254-.065.553-.082.82.06.614.04 1.071.074 1.57-.017-.25.02-.077.03.089.03.307.043.676-.003 1.045-.023.185-.104.3-.112.433a4.31 4.31 0 0 1-.13.836c-.029.102-.084.182-.112.283l.473.45c.127.167.236.322.411.42.208.187.386.347.6.51.208.187.484.36.76.51.1.052.244.146.38.18.161.04.402.053.586.017.291-.01.559-.082.825-.207.292-.117.539-.21.778-.34.027.006.12-.063.222-.12.11-.08.24-.126.35-.207s.224-.171.333-.253c.15-.126.295-.261.446-.387.198-.195.305-.299.43-.432.04-.044.17-.184.301-.342.214-.246.43-.47.59-.73.4-.608.764-1.292.99-1.998.028-.102.092-.26.128-.388.05-.178.047-.3.097-.477.081-.497.207-.977.322-1.493.064-.229.189-.438.32-.596.062-.12.104-.203.16-.298.076-.172.215-.336.365-.462.124-.133.255-.272.398-.372.15-.126.32-.159.524-.163a.334.334 0 0 1 .158 0 .716.716 0 0 0 .19.09.432.432 0 0 1 .158.15c.073.155.095.216.142.255.02.032.057.097.063.18-.023.184-.009.363-.066.567a31.582 31.582 0 0 1-.405 2.313l-.21.91a1.24 1.24 0 0 0 .061.778c.006.083.096.161.19.24s.224.168.332.194c.135.034.265.03.38.031.21-.029.386-.032.603-.087.251-.074.491-.195.73-.326.539-.275 1.021-.516 1.493-.862.39-.257.83-.511 1.287-.697a.389.389 0 0 1 .301-.044c.101.052.195.12.269.165s.152.067.158.15c.053.122.08.265.078.373-.009.134-.045.246-.08.373-.008.026-.003.054-.017.105-.036.127-.097.273-.113.433 0 0-.024.034-.032.06-.02.076-.01.132-.032.208-.055.095-.174.199-.223.268-.07.146-.127.279-.223.418a2.82 2.82 0 0 1-.303.342c-.165.177-.364.351-.556.521-.295.227-.575.43-.922.535-.3.143-.664.244-.984.355-.122.024-.19.058-.285.089-.238.023-.47.024-.714.072-.279.067-.583.116-.888.177-.252.073-.549.098-.793.146-.19.062-.427.172-.651.252-.218.055-.429.13-.619.192-.252.074-.442.127-.667.207-.695.317-1.365.655-2 1.069a5.213 5.213 0 0 0-1.736 1.98c-.09.223-.144.383-.208.612s-.14.466-.177.702c-.026.401-.013.811-.004 1.194 0 .409.021.793-.005 1.195.019.14-.006.31-.049.463-.066.337-.101.624-.194.955-.014.05-.059.147-.08.224a7.801 7.801 0 0 1-1.74 3.175l-.858.864-.923.833c-.841.635-1.74 1.246-2.748 1.649-.474.195-1.102.465-1.841.77-4.348 1.929-4.845 3.226-6.42 4.043l-.189-.151c-.017.372-.006.595.061.627.368.175 3.597 6.315 5.037 9.575 2.512 5.683 4.81 7.808 8.262 7.629 1.943-.102 5.453 1.76 7.262 3.861.8.929 5.571 1.616 9.774 1.391 1.477-.079 2.863-.057 3.123.025s2.875-.079 5.802-.31 6.852-.43 8.704-.464 3.693-.152 4.123-.285c1.124-.349 2.124-1.924 3.252-5.187.568-1.642 1.422-3.258 2.043-3.816 1.627-1.461 5.214-3.245 5.891-2.923.775.368.572.836-1.07 2.371-1.604 1.5-2.75 3.76-2.395 4.771.128.368.017.953-.275 1.329-1.316 1.693-1.28 2.917.152 6.168 1.33 3.017 1.335 3.123.897 6.037-.573 3.814-.022 5.503 2.131 6.697 1.569.87 5.234 1.255 7.606.772.99-.202 1.498.012 3.307 1.609 1.176 1.038 2.945 2.288 3.92 2.76 2.613 1.267 8.52 2.925 9.422 2.645.43-.134 1.431-.088 2.25.097 1.66.375 4.374 1.988 4.128 2.448-.087.163-.903.529-1.825.815l-1.667.517.725 1.317c.706 1.262.71 1.362-.26 1.821-.562.266-1.27.47-1.572.488s-.68.111-.84.161-.84-.143-1.52-.423-1.843-.682-2.58-.89c-2.577-.721-6.64-2.703-7.5-3.638-.478-.518-2.188-1.4-3.766-2.013-2.81-1.092-2.928-1.15-6.608-.485-2.067.373-4.569.86-5.536 1.072-5.977 1.31-8.654.759-12.227-2.519-3.283-3.011-5.76-3.479-11.436-2.218-2.14.476-4.022 1.049-4.205 1.256s-.796.448-1.334.563c-1.228.264-5.287.4-6.468.218a785.53 785.53 0 0 1-10.708-1.797c-1.234-.22-2.539-.405-2.9-.443s-1.12-.22-1.71-.364c-.636-.153-2.12.05-3.631.481-2.626.75-4.63.702-9.462-.344-4.888-1.058-7.305-.18-11.57 4.189-1.634 1.672-3.206 3.083-3.436 3.155s-.951 1.014-1.64 2.1c-1.211 1.907-1.355 2.012-3.974 2.825l-2.713.842 1.101-2.132c.612-1.17 1.45-2.35 1.833-2.608s1.106-1.146 1.624-1.996 1.884-2.265 3.023-3.126 2.001-1.673 1.94-1.846c-.154-.442-.596-.279-4.38 1.808-4.28 2.36-6.75 3.185-9.237 3.017-1.084-.074-1.996-.278-2.043-.41-.229-.641 6.043-3.94 9.227-4.854 2.955-.847 8.407-3.276 9.812-4.388 1.427-1.13 1.11-1.043 9.63-2.194 1.585-.214 3.133-.617 3.49-.885.951-.714.69-2.15-.824-4.319a192.308 192.308 0 0 1-2.034-2.949c-.386-.584-1.273-1.529-1.942-2.082-2.437-2.011-2.672-2.94-1.906-7.563.668-4.042.652-4.263-.265-5.586-.524-.756-1.327-1.57-1.8-1.828-.893-.486-6.696-1.353-7.462-1.115-.541.168-1.15-.545-1.579-1.797-.604-1.762-.252-2.146 3.135-3.26 2.39-.788 4.87-1.871 6.62-2.802l-1.014-.182-4.215-.283c-.764-.054-1.565-.12-2.425-.142a6.333 6.333 0 0 1-1.964-.335c-.418-.158-.83-.303-1.234-.512a.685.685 0 0 1-.362-.882.922.922 0 0 1 .668-.655c.435-.11.852-.058 1.284.049l-.488-.793-.441-.808-.298-.853c-.405-1.134-.676-2.309-.748-3.497l-.758-.809c-.2-.213-.334-.468-.425-.763s.048-.65.367-.76c.327-.137.624-.12.92.063l1.154.586c.397.234.85.39 1.282.497.324.08.64.13.95.152l-.457-.554-.456-.853-.567-1.166-.251-.569c-.091-.294.05-.608.304-.79a.758.758 0 0 1 .73-.028c.302.157.592.375.805.645.354.387.654.799.947 1.198.312.431.707.815 1.137 1.139l1.975 1.574c.45.357 1.15.743 1.852.917.08.02.16.043.221.03a.811.811 0 0 0 .842-.31.713.713 0 0 0 .16-.298c.035-.127.014-.241-.031-.389a4.146 4.146 0 0 1-.106-1.359c.027-.51.222-.984.512-1.402.25-.374.772-.434 1.078-.086.154.174.282.454.3.703.095 1.411.245 2.783.444 4.138l5.115 1.197.715-.52 1.05-1.073a15.647 15.647 0 0 0 2.277-2.845c.43-.71.76-1.47 1.007-2.252a.642.642 0 0 0 .096-.179c.156-.56.184-1.093.164-1.642-.046-.556-.195-1.128-.5-1.585-.24-.385-.552-.758-.805-1.092-.433-.516-.867-1.007-1.39-1.409-.55-.408-1.167-.68-1.835-.872l-1.678-.573c-.371-.12-.628-.167-.871-.227-.432-.107-.805-.202-1.252-.258a24.209 24.209 0 0 1-2.012-.32l-.887-.122c-.439-.082-.87-.313-1.218-.617-.254-.226-.347-.523-.235-.822.107-.381.42-.687.827-.804.382-.123.827-.214 1.253-.19.487.012.966.095 1.474.14l3.097-1.708-.298-.703a7.433 7.433 0 0 1-.689-2.421c-.03-.307.162-.594.415-.776a.804.804 0 0 1 .714-.072c.243.06.47.206.616.405.186.264.331.577.457.853.15.391.356.734.582 1.062s.439.606.679.884c.153.174.351.365.505.539l.301-.044.54.032 1.567.259 1.537.318 1.9.305a4.224 4.224 0 0 0 1.792-.009l.255-.328c.145-.208.199-.422.256-.626.014-.05.05-.068.063-.12.037-.235.08-.454.082-.671a2.044 2.044 0 0 0-.045-.732c-.03-.198-.068-.399-.14-.553a.533.533 0 0 0-.19-.24c-.12-.084-.257-.15-.363-.285-.134-.141-.306-.326-.474-.45-.175-.097-.37-.206-.538-.33l-.885-.57-.68-.435c-.343-.221-.684-.507-.917-.81-.18-.18-.275-.33-.394-.524s-.147-.471-.03-.687c.264-.424.772-.622 1.27-.444 1.045.396 2.001.912 2.88 1.593a.699.699 0 0 0 .253.12c.054.013.077-.02.158 0 .414-.033.852-.278.985-.653.091-.223.15-.45.24-.672.007-.025.025-.034.032-.06.071-.254.047-.49.003-.746a1.129 1.129 0 0 0-.299-.553c-.22-.246-.409-.463-.663-.69a6.01 6.01 0 0 1-1.073-1.258.6.6 0 0 1-.046-.582c.077-.172.216-.336.366-.462.11-.082.232-.1.381-.118zm-8.34 13.877a.604.604 0 0 0-.35.208c-.075.063-.047.206.046.284.43.324.87.612 1.313.885a8.81 8.81 0 0 0 1.313.587c.135.033.274.1.396.076.502-.04.998-.06 1.459-.055.122-.024.277-.062.412-.029.027.007.004.083.031.09.27.067.491.184.665.39.066.071.143.146.141.255s-.1.286-.128.388c-.007.025.016.044.016.044-.064.23-.17.417-.24.672-.077.171-.066.363-.082.522l.015.344c.105.243.225.549.33.792.288.725.446 1.489.483 2.287l.061.478c.457-.186.927-.392 1.35-.668.22-.163.466-.35.731-.475.198-.087.387-.141.603-.088.324.08.58.368.568.719-.009.134-.014.336-.05.463-.028.102-.071.143-.127.238a1.35 1.35 0 0 1-.478.596c-.472.346-.879.717-1.304 1.101s-.867.774-1.272 1.19c-.789.757-1.514 1.582-2.101 2.443-.441.544-.859 1.13-1.306 1.698l-.558.67.064.03a30.96 30.96 0 0 0 5.428-1.983 11.498 11.498 0 0 0 1.827-1.114c.698-.534 1.356-1.148 1.893-1.83a7.747 7.747 0 0 0 .989-1.7c.084-.197.151-.408.208-.612.185-.661.184-1.379.119-2.075a6.368 6.368 0 0 0-1.635-3.62 7.188 7.188 0 0 0-2.15-1.62 12.779 12.779 0 0 0-2.675-1.01l-.808-.196a22.79 22.79 0 0 0-2.424-.44 10.775 10.775 0 0 0-.427-.017c-.142-.008-.26-.002-.428-.017-.089.006-.227.035-.35.06a6.697 6.697 0 0 1-1.014-.034 3.036 3.036 0 0 0-.555.073zm-17.094 14.505a5.88 5.88 0 0 0 .23 2.316c.292.916.87 1.771 1.64 2.425.214.162.46.34.743.465.208.08.404.094.585.166.109.027.241.064.349.091l.174.045.349-.058a1.504 1.504 0 0 0-.298-.852 3.438 3.438 0 0 1-.582-1.212c-.026-.115-.05-.216-.015-.344.05-.178.2-.285.398-.372.259-.099.575-.145.872-.071.081.02.156.055.237.075.364.145.684.359 1.013.63.335.247.692.524.98.84.26.31.508.61.741.914l.268.314c1.173.454 2.41.725 3.675.848l.919.063.586.017c-.017-.25-.04-.542-.171-.792-.145-.308-.273-.631-.52-.883-.307-.348-.733-.685-1.122-.945a7.122 7.122 0 0 0-1.63-.886 36.538 36.538 0 0 0-3.276-1.22l-.65-.197-.474-.15-1.045-.273-2.534-.605-1.442-.349z"/><path d="M1310.615 155.503c.207-.046.393-.062.586-.03.16.053.286.118.414.193.21.088.347.236.493.367.31.318.74.535 1.17.66l.118-.1.053-.124c.08-.12.107-.246.16-.371a2.37 2.37 0 0 1 .923-1.09c.166-.093.405-.14.593-.135.062.001.097-.03.157-.012.22.036.417.168.585.33a.504.504 0 0 1 .158.347c.03.299.016.535-.009.825l-.253 1.488-.033.167c-.043.233-.043.484-.114.713-.212.686-.529 1.34-.846 1.983-.295.672-.54 1.314-.67 2.014-.043.233-.031.5-.047.738-.048.259-.016.556-.008.824.113.607.135 1.064.213 1.557-.039-.247.014-.077.04.087.057.303.102.67.09 1.042-.007.186-.077.306-.074.44.007.269-.006.584-.054.844-.02.103-.067.187-.086.29l.512.411c.141.157.264.302.447.385.223.17.416.316.644.46.223.171.514.321.802.449.105.044.257.127.394.15.165.026.407.02.586-.03.29-.033.55-.127.804-.272.281-.14.518-.252.744-.402.028.005.114-.072.211-.136.102-.09.228-.145.33-.235l.31-.278c.138-.137.27-.284.409-.421.18-.21.278-.322.39-.464.036-.048.154-.198.27-.366.19-.262.386-.502.521-.774.345-.638.646-1.349.808-2.07.019-.103.069-.267.093-.396.033-.182.02-.302.053-.484.037-.501.12-.99.188-1.513.043-.233.148-.451.265-.62.051-.124.085-.21.132-.31.06-.176.185-.351.324-.488.11-.142.228-.291.362-.403.14-.137.305-.183.507-.203a.333.333 0 0 1 .158-.013c.078.04.143.066.198.075.077.04.125.076.17.137.087.148.114.207.165.242.022.03.065.092.078.174-.006.186.024.363-.014.57-.03.77-.107 1.551-.196 2.338l-.127.924c-.043.233.003.534.13.769.013.082.11.154.21.224s.239.15.348.168c.138.022.267.008.382 0 .207-.046.381-.063.593-.135.244-.093.472-.233.698-.383.512-.316.972-.595 1.41-.977a7.49 7.49 0 0 1 1.22-.798.386.386 0 0 1 .296-.067c.106.044.206.103.283.143s.158.054.171.136a.98.98 0 0 1 .111.367c.004.134-.023.248-.047.378-.004.026.003.053-.006.105-.025.13-.073.28-.074.44 0 0-.021.036-.026.062-.015.078 0 .133-.014.211-.046.1-.156.212-.198.285-.056.151-.102.287-.185.434-.08.12-.164.249-.271.365-.148.19-.332.379-.508.563-.273.25-.534.475-.87.607-.286.166-.64.296-.949.432-.12.033-.184.073-.276.11-.235.042-.465.062-.705.13-.271.089-.57.162-.87.246-.243.093-.537.142-.776.21-.185.076-.41.204-.626.302-.212.072-.415.164-.6.24-.244.094-.429.162-.645.26-.664.371-1.302.762-1.898 1.224a5.14 5.14 0 0 0-1.552 2.112c-.07.229-.109.393-.152.626s-.098.475-.114.713c.01.402.06.81.103 1.19.038.408.093.79.103 1.192.03.138.021.31-.008.465-.035.341-.045.63-.107.967-.01.052-.046.151-.06.23a7.71 7.71 0 0 1-1.448 3.302l-.78.928-.843.904c-.782.7-1.623 1.38-2.591 1.862l-1.766.914c-4.159 2.268-4.538 3.6-6.034 4.539l-.202-.135c.017.372.048.594.118.62.381.145 4.15 6.006 5.877 9.14 3.012 5.462 5.492 7.398 8.916 6.943 1.927-.255 5.59 1.32 7.582 3.27.88.862 5.696 1.167 9.864.609 1.464-.197 2.847-.286 3.114-.224s2.858-.308 5.754-.77 6.788-.974 8.631-1.156 3.666-.445 4.082-.612c1.09-.437 1.944-2.086 2.776-5.427.419-1.682 1.124-3.36 1.693-3.966 1.49-1.585 4.905-3.648 5.609-3.381.805.305.644.787-.855 2.448-1.463 1.622-2.402 3.965-1.959 4.945.161.355.104.948-.154 1.345-1.16 1.792-1.015 3.01.705 6.134 1.595 2.9 1.61 3.005 1.435 5.944-.23 3.846.471 5.486 2.724 6.504 1.64.742 5.327.834 7.647.164.969-.28 1.494-.107 3.44 1.34 1.265.94 3.14 2.045 4.154 2.438 2.717 1.055 8.751 2.236 9.625 1.885.416-.167 1.418-.201 2.25-.082 1.687.241 4.537 1.633 4.334 2.11-.073.17-.853.6-1.747.958l-1.614.648.84 1.255c.817 1.2.83 1.3-.096 1.835-.535.309-1.223.569-1.522.611s-.667.165-.823.228-.85-.076-1.553-.3-1.897-.534-2.65-.682c-2.632-.514-6.859-2.165-7.8-3.029-.521-.478-2.305-1.221-3.932-1.706-2.897-.864-3.02-.912-6.628.043-2.026.536-4.475 1.22-5.42 1.509-5.838 1.781-8.555 1.444-12.41-1.537-3.54-2.74-6.051-3.008-11.593-1.3-2.09.645-3.913 1.365-4.078 1.586s-.752.51-1.278.668c-1.2.36-5.232.818-6.425.731a787.94 787.94 0 0 1-10.832-.938c-1.25-.122-2.566-.201-2.928-.21s-1.137-.132-1.737-.227c-.647-.102-2.108.218-3.576.768-2.548.957-4.55 1.068-9.458.41-4.965-.665-7.296.402-11.154 5.095-1.477 1.797-2.917 3.327-3.14 3.417s-.857 1.087-1.446 2.223c-1.036 1.997-1.17 2.113-3.706 3.131l-2.628 1.056.906-2.212c.505-1.216 1.234-2.458 1.592-2.745s1-1.23 1.44-2.118 1.674-2.407 2.732-3.356 1.843-1.826 1.768-1.993c-.194-.428-.62-.23-4.204 2.15-4.052 2.692-6.44 3.711-8.933 3.741-1.086.013-2.014-.118-2.073-.246-.285-.62 5.669-4.407 8.76-5.57 2.868-1.08 8.083-3.934 9.383-5.154 1.32-1.24 1.013-1.128 9.398-2.953 1.56-.34 3.068-.864 3.399-1.16.884-.787.495-2.196-1.208-4.237-.83-.994-1.855-2.224-2.292-2.776s-1.404-1.423-2.121-1.92c-2.608-1.81-2.925-2.717-2.577-7.385.303-4.08.267-4.3-.765-5.545-.59-.712-1.463-1.46-1.958-1.679-.932-.412-6.793-.814-7.535-.516-.524.21-1.194-.452-1.734-1.666-.76-1.707-.443-2.117 2.831-3.498 2.312-.974 4.685-2.251 6.346-3.318l-1.027-.1-4.225.053c-.767.007-1.57.006-2.43.051a6.356 6.356 0 0 1-1.986-.177c-.431-.125-.856-.236-1.276-.412a.691.691 0 0 1-.44-.85.91.91 0 0 1 .607-.706c.424-.144.844-.126 1.284-.054l-.558-.751-.512-.77-.373-.825c-.505-1.098-.88-2.248-1.059-3.426l-.827-.745c-.22-.197-.376-.44-.492-.727s-.011-.65.297-.787c.314-.162.611-.168.922-.01l1.203.492c.416.202.882.32 1.322.393.33.054.649.078.961.076l-.506-.515-.531-.814-.669-1.117-.301-.547c-.117-.286-.004-.61.232-.812.198-.154.486-.177.724-.085.315.132.624.326.86.578.388.358.724.744 1.051 1.119.35.404.779.755 1.236 1.044.808.533 1.43.952 2.11 1.412a5.26 5.26 0 0 0 1.926.766c.083.014.164.03.224.013.33.054.647-.11.81-.377a.704.704 0 0 0 .132-.31c.024-.13-.006-.241-.065-.384a4.163 4.163 0 0 1-.227-1.346c-.019-.51.133-1 .385-1.438a.673.673 0 0 1 1.066-.172c.169.161.322.43.36.677.223 1.398.495 2.753.815 4.088l5.204.785.666-.575.95-1.152a15.423 15.423 0 0 0 2.014-3.016 10.3 10.3 0 0 0 .802-2.324.633.633 0 0 0 .079-.186c.106-.57.086-1.104.017-1.65-.097-.55-.297-1.108-.642-1.539-.272-.365-.617-.711-.9-1.025-.477-.479-.953-.934-1.51-1.292-.585-.364-1.224-.584-1.908-.723-.512-.138-1.128-.286-1.723-.438-.38-.09-.64-.116-.888-.157-.44-.072-.82-.136-1.27-.157a24.292 24.292 0 0 1-2.033-.159l-.895-.051c-.445-.047-.896-.242-1.27-.517-.273-.206-.392-.495-.307-.8.072-.39.356-.72.752-.868.369-.153.804-.279 1.231-.289.487-.026.971.018 1.481.022l2.933-1.948-.36-.677a7.5 7.5 0 0 1-.904-2.358c-.056-.303.109-.604.345-.805a.801.801 0 0 1 .704-.13c.248.041.487.168.65.355.21.248.383.549.532.814.185.377.421.703.676 1.012s.49.569.755.826c.169.161.383.336.552.497l.296-.067.54-.012 1.586.133 1.56.196 1.92.152c.61.074 1.241.026 1.784-.151l.225-.347c.126-.22.16-.438.199-.645.01-.052.043-.072.053-.124.016-.238.038-.46.021-.676.016-.237-.039-.5-.11-.725-.049-.195-.104-.393-.19-.54a.54.54 0 0 0-.21-.224c-.128-.074-.27-.129-.388-.255-.146-.13-.334-.3-.512-.41-.183-.084-.388-.177-.566-.287l-.933-.497-.717-.38c-.36-.193-.726-.45-.985-.734-.196-.166-.304-.308-.44-.49s-.19-.459-.091-.683a1.045 1.045 0 0 1 1.225-.543c1.077.31 2.076.75 3.012 1.358.05.034.153.081.263.1.055.008.075-.026.158-.013.409-.066.823-.346.923-.73.07-.229.108-.46.179-.688.005-.026.022-.036.026-.062.048-.259.003-.493-.064-.744a1.145 1.145 0 0 0-.347-.528c-.242-.227-.45-.428-.723-.634a6.103 6.103 0 0 1-1.182-1.168.6.6 0 0 1-.098-.577c.062-.177.185-.352.324-.49.102-.09.221-.118.369-.147zm-7.067 14.491a.597.597 0 0 0-.33.235c-.07.069-.029.21.072.28.457.288.92.54 1.387.777.443.207.904.351 1.361.48.138.023.282.078.402.044.496-.078.989-.14 1.448-.17.12-.034.27-.084.408-.062.028.005.012.083.04.087.274.045.505.145.696.336.073.066.156.134.164.243s-.073.293-.092.396c-.005.026.02.044.02.044-.044.233-.132.429-.18.688-.061.177-.033.367-.034.527l.045.34c.127.235.274.53.4.764a7.06 7.06 0 0 1 .686 2.24l.105.472c.438-.222.887-.464 1.285-.773.203-.18.432-.387.685-.532.19-.102.373-.171.593-.135.33.054.61.32.63.67.004.135.017.336-.007.466-.02.104-.06.149-.106.248-.076.254-.22.451-.423.631-.44.382-.811.785-1.2 1.201s-.795.84-1.161 1.288c-.719.816-1.367 1.696-1.875 2.6-.39.578-.754 1.194-1.15 1.797l-.494.712.066.025a30.635 30.635 0 0 0 5.23-2.408c.637-.376 1.18-.784 1.721-1.256.647-.588 1.248-1.252 1.722-1.975a7.652 7.652 0 0 0 .833-1.772 4.97 4.97 0 0 0 .153-.626c.125-.674.06-1.389-.068-2.077a6.444 6.444 0 0 0-1.954-3.477 7.29 7.29 0 0 0-2.287-1.443 12.9 12.9 0 0 0-2.756-.793c-.267-.05-.554-.09-.823-.132a22.885 22.885 0 0 0-2.454-.246c-.142.003-.313.01-.428.018-.142.003-.258.019-.428.017-.087.013-.222.053-.342.087-.35.049-.674.05-1.014.047-.202.02-.367.066-.546.117zm-15.732 15.814c-.006.8.144 1.574.436 2.29a5.442 5.442 0 0 0 1.852 2.285c.228.144.489.303.782.405.215.062.41.06.599.119.11.018.245.044.355.062l.177.032.343-.087a1.518 1.518 0 0 0-.374-.825 3.482 3.482 0 0 1-.688-1.161c-.036-.113-.07-.212-.045-.341.033-.182.173-.3.363-.403.248-.119.56-.19.862-.14.083.013.16.042.243.056.376.115.714.303 1.065.547.357.22.738.467 1.052.759.287.288.562.568.82.851l.296.292c1.21.36 2.466.53 3.737.553l.922-.01.586-.03c-.04-.247-.088-.537-.242-.776-.172-.296-.328-.607-.597-.838-.337-.323-.792-.624-1.203-.852a7.21 7.21 0 0 0-1.703-.754 36.854 36.854 0 0 0-3.374-.955l-.665-.144-.486-.113-1.066-.188-2.58-.402-1.467-.232z"/><path d="M1709.47 209.208c-.834-.001-1.706.158-2.756.514-1.907.646-3.546 2.194-3.655 3.443s-.764 2.228-1.443 2.176-1.102.955-.962 2.175c.317 2.757-4.25 7.407-7.054 7.19-1.146-.09-2.188.663-2.276 1.66-.1 1.149-.876 1.454-2.148.877-1.107-.503-1.38-1.18-.641-1.54s-8.462-1.5-20.456-2.478a608.92 608.92 0 0 0-6.765-.514v-.03s-87.157-8.201-188.01-11.72c-25.214-.88-48.273-1.346-68.644-1.511s-38.059-.039-52.613.181c-29.108.44-45.624 1.33-45.624 1.33l-.256.06s16.829.56 45.912.12 70.766-.429 121.161 1.33c100.795 3.517 187.914 11.72 187.914 11.72 3.347.457 6.978.845 10.035 1.118 5.86.524 11.932 1.764 13.562 2.75 6.355 3.841 6.414 3.99 2.533 6.857-4.421 3.266-5.716 3.277-7.182.09-.614-1.335-2.111-2.873-3.302-3.413-2.661-1.208-6.573 1.612-5.354 3.867.657 1.216 1.388 1.08 2.853-.514 2.669-2.903 3.836-1.174 1.507 2.235-3.205 4.692-5.872 5.58-9.747 3.293-1.876-1.108-4.307-2.086-5.45-2.175-3.829-.298-8.447 3.047-10.516 7.643-1.72 3.822-1.785 5.327-.417 9.304.897 2.608 2.658 5.207 3.911 5.77s2.94 1.768 3.752 2.659c2.587 2.84 22.239 9.45 34.338 11.57 19.754 3.46 33.68 4.416 38.506 2.597 3.496-1.317 4.365-2.38 4.649-5.618.424-4.839-1.397-7.104-5.996-7.462-2.38-.185-3.997.635-5.162 2.598-1.621 2.731-1.343 4.37.738 4.531.533.042.785-1.033.545-2.326-.466-2.503 2.531-3.595 6.669-2.416 2.859.814 2.57 5.194-.546 7.945-3.074 2.713-10.978 2.204-11.894-.756-.364-1.173-1.646-3.248-2.854-4.592-2.684-2.985-2.646-4.923.064-4.712 4.185.326 8.544-4.723 10.068-11.57 1.984-8.92 3.664-10.997 8.336-10.633 2.88.224 3.681-.2 3.238-1.632-.326-1.051-1.574-1.971-2.757-2.084-1.902-.182-1.88-.37.256-1.33 1.329-.596 2.92-.754 3.527-.332s1.554-.05 2.084-1.087c1.436-2.81 1.3-3.211-.93-2.598-1.234.34-2.775-.682-3.88-2.598-2.235-3.878-7.917-6.123-16.03-6.314-5.544-.13-6.256-.447-6.733-3.172-.728-4.156.51-5.312 5.418-5.045 2.306.126 3.324-.162 2.277-.634s-2.15-1.271-2.47-1.782-2.34-2.03-4.552-3.323c-2.028-1.188-3.386-1.69-4.777-1.692zm-48.99 31.72c.23-.008.45.012.674.03 1.79.142 3.414 1.104 5.002 2.87 1.757 1.954 2.214 3.634 1.474 5.679-.087.242-.164.455-.224.664-.006.02-.027.04-.032.06-1.422 2.555-4.509 3.942-7.118 2.568-.945-.497-1.743-1.396-2.116-2.416s-.382-2.105.193-3.082c.306-.52.919-.996 1.506-1.178s1.095-.115 1.54.333c.3.3.771.284 1.057-.03s.269-.818-.032-1.118c-.426-.43-.922-.682-1.442-.786s-1.054-.06-1.54.09a4.2 4.2 0 0 0-2.34 1.874c-.834 1.418-.831 3.044-.32 4.44s1.524 2.61 2.82 3.293c2.872 1.512 6.13.47 8.145-1.843.213.116.489.155.833.182 2.56.199 2.31 3.445-.32 4.169-1.103.303-2.887 2.126-3.976 4.048-2.197 3.873-3.402 3.567-10.26-2.96-4.73-4.505-4.195-11.602 1.09-14.894 2.042-1.272 3.784-1.94 5.387-1.994zm10.292 16.826c.369.008.765.025 1.219.06 3.754.292 4.34.975 6.348 6.737 2.42 6.94 1.865 7.41-4.905 3.987-4.319-2.183-5.532-6.614-1.507-5.498 1.24.344 2.125 1.594 1.923 2.75s.16 2.124.802 2.174c2.338.182 1.443-4.724-1.026-5.679-3.347-1.295-5.23-.233-5.515 3.02-.156 1.786-.62 2.214-1.442 1.3-.67-.745-.714-3.066-.065-5.196.902-2.956 1.59-3.712 4.168-3.655zm9.138 1.993c1.023-.035 2.793.416 5.61 1.179 3.098.838 3.834 1.586 3.143 3.172-.499 1.143-.136 2.76.801 3.625 2.397 2.212 6.46.881 5.932-1.964-.344-1.852.25-2.142 4.617-1.601-.097 1.755.338.042.48.06l.802.121c5.08.685 6.84 1.501 8.817 4.32 1.36 1.938 3.13 3.215 3.912 2.84s1.857.162 2.404 1.148c1.576 2.835 1.011 4.116-.994 2.265-1.265-1.168-1.871-1.29-1.955-.332-4.778 1.889-11.636.17-15.555-.656-1.512-.279-3.127-.344-4.484-.703-4.703-1.245-8.293-4.704-8.112-7.764.048-.811-.472-1.821-1.154-2.296-.824-.574-.936.226-.256 2.447 1.254 4.095 1.227 4.466-.257 4.35-.648-.05-2.197-2.422-3.462-5.256-1.56-3.496-1.994-4.896-.289-4.955zm18.189 14.095c.16.03.7.062.862.09 1.997-2.284 2.405-7.527 1.957-9.714-.164-.02-.75-.041-.905-.06-.069.651-.22 1.497-.225 1.54-.11.923-.462 2.016-.845 4.147-.348 1.936-.804 3.172-.844 3.997zm-6.358-10.5c.622.021 1.257.292 1.891.997.929 1.033.93 1.87-.096 2.689s-1.93.575-2.917-.755c-1.23-1.657-.246-2.977 1.122-2.93zm19.942 2.538c.75.058 1.62 1.003 1.956 2.084.926 2.99-.386 3.233-1.956.363-.879-1.607-.863-2.514 0-2.447zm17.634 2.688c-.325-.025-.823.574-1.41 1.722-.505.987-.346 1.819.352 1.873s1.386-.733 1.475-1.752c.104-1.186-.091-1.817-.417-1.843z"/><path transform="matrix(.01268 .0073 -.0081 .01142 1026.146 186.085)" d="M23.888 766.01l-141.21-207.2-139.78 208.17 108.83-225.9-250.17-16.966 250.05-18.695-110.39-225.14 141.21 207.2 139.78-208.17-108.83 225.9 250.17 16.966-250.05 18.695 110.39 225.14z" fill="url(#h)" fill-rule="evenodd"/><path transform="matrix(.00805 .01288 -.01429 .00727 1033.393 195.355)" d="M-555.4 541.06a78.632 352.35 0 1 1-157.26 0 78.632 352.35 0 1 1 157.26 0z" fill="url(#i)" fill-rule="evenodd" opacity=".727"/><path transform="matrix(.01637 .00089 -.001 .01476 1031.452 183.69)" d="M-555.4 541.06a78.632 352.35 0 1 1-157.26 0 78.632 352.35 0 1 1 157.26 0z" fill="url(#j)" fill-rule="evenodd" opacity=".727"/><path transform="matrix(.00871 -.01253 .01391 .00785 1018.466 179.066)" d="M-555.4 541.06a78.632 352.35 0 1 1-157.26 0 78.632 352.35 0 1 1 157.26 0z" fill="url(#k)" fill-rule="evenodd" opacity=".727"/><path transform="matrix(.01268 .0073 -.0081 .01142 1219.074 186.085)" d="M23.888 766.01l-141.21-207.2-139.78 208.17 108.83-225.9-250.17-16.966 250.05-18.695-110.39-225.14 141.21 207.2 139.78-208.17-108.83 225.9 250.17 16.966-250.05 18.695 110.39 225.14z" fill="url(#h)" fill-rule="evenodd"/><path transform="matrix(.00805 .01288 -.01429 .00727 1226.3 195.355)" d="M-555.4 541.06a78.632 352.35 0 1 1-157.26 0 78.632 352.35 0 1 1 157.26 0z" fill="url(#i)" fill-rule="evenodd" opacity=".727"/><path transform="matrix(.01637 .00089 -.001 .01476 1224.235 183.69)" d="M-555.4 541.06a78.632 352.35 0 1 1-157.26 0 78.632 352.35 0 1 1 157.26 0z" fill="url(#j)" fill-rule="evenodd" opacity=".727"/><path transform="matrix(.00871 -.01253 .01391 .00785 1211.229 179.066)" d="M-555.4 541.06a78.632 352.35 0 1 1-157.26 0 78.632 352.35 0 1 1 157.26 0z" fill="url(#k)" fill-rule="evenodd" opacity=".727"/><path transform="matrix(.01268 .0073 -.0081 .01142 1145.578 274.301)" d="M23.888 766.01l-141.21-207.2-139.78 208.17 108.83-225.9-250.17-16.966 250.05-18.695-110.39-225.14 141.21 207.2 139.78-208.17-108.83 225.9 250.17 16.966-250.05 18.695 110.39 225.14z" fill="url(#h)" fill-rule="evenodd"/><path transform="matrix(.00805 .01288 -.01429 .00727 1152.803 283.57)" d="M-555.4 541.06a78.632 352.35 0 1 1-157.26 0 78.632 352.35 0 1 1 157.26 0z" fill="url(#i)" fill-rule="evenodd" opacity=".727"/><path transform="matrix(.01637 .00089 -.001 .01476 1150.739 271.906)" d="M-555.4 541.06a78.632 352.35 0 1 1-157.26 0 78.632 352.35 0 1 1 157.26 0z" fill="url(#j)" fill-rule="evenodd" opacity=".727"/><path transform="matrix(.00871 -.01253 .01391 .00785 1137.795 267.282)" d="M-555.4 541.06a78.632 352.35 0 1 1-157.26 0 78.632 352.35 0 1 1 157.26 0z" fill="url(#k)" fill-rule="evenodd" opacity=".727"/><path transform="matrix(.01268 .0073 -.0081 .01142 1718.89 44.956)" d="M23.888 766.01l-141.21-207.2-139.78 208.17 108.83-225.9-250.17-16.966 250.05-18.695-110.39-225.14 141.21 207.2 139.78-208.17-108.83 225.9 250.17 16.966-250.05 18.695 110.39 225.14z" fill="url(#h)" fill-rule="evenodd"/><path transform="matrix(.00805 .01288 -.01429 .00727 1726.115 54.226)" d="M-555.4 541.06a78.632 352.35 0 1 1-157.26 0 78.632 352.35 0 1 1 157.26 0z" fill="url(#i)" fill-rule="evenodd" opacity=".727"/><path transform="matrix(.01637 .00089 -.001 .01476 1724.257 42.561)" d="M-555.4 541.06a78.632 352.35 0 1 1-157.26 0 78.632 352.35 0 1 1 157.26 0z" fill="url(#j)" fill-rule="evenodd" opacity=".727"/><path transform="matrix(.00871 -.01253 .01391 .00785 1711.25 37.916)" d="M-555.4 541.06a78.632 352.35 0 1 1-157.26 0 78.632 352.35 0 1 1 157.26 0z" fill="url(#k)" fill-rule="evenodd" opacity=".727"/><path transform="matrix(.01268 .0073 -.0081 .01142 1807.043 289)" d="M23.888 766.01l-141.21-207.2-139.78 208.17 108.83-225.9-250.17-16.966 250.05-18.695-110.39-225.14 141.21 207.2 139.78-208.17-108.83 225.9 250.17 16.966-250.05 18.695 110.39 225.14z" fill="url(#h)" fill-rule="evenodd"/><path transform="matrix(.00805 .01288 -.01429 .00727 1814.27 298.27)" d="M-555.4 541.06a78.632 352.35 0 1 1-157.26 0 78.632 352.35 0 1 1 157.26 0z" fill="url(#i)" fill-rule="evenodd" opacity=".727"/><path transform="matrix(.01637 .00089 -.001 .01476 1812.411 286.606)" d="M-555.4 541.06a78.632 352.35 0 1 1-157.26 0 78.632 352.35 0 1 1 157.26 0z" fill="url(#j)" fill-rule="evenodd" opacity=".727"/><path transform="matrix(.00871 -.01253 .01391 .00785 1799.405 281.981)" d="M-555.4 541.06a78.632 352.35 0 1 1-157.26 0 78.632 352.35 0 1 1 157.26 0z" fill="url(#k)" fill-rule="evenodd" opacity=".727"/></g></svg>