<?xml version="1.0" encoding="UTF-8"?>
<svg viewBox="0 0 176.8159 49.41029" xmlns="http://www.w3.org/2000/svg">
 <g transform="translate(-316.11 -300.33)">
  <path d="m420.5 317.62c-2.6818-3.88-13.249-4.5182-16.838 1.336-2.6012 4.5798-0.46369 11.553 3.5571 14.875 4.8885 4.5001 10.401 4.6793 14.378 10.242 1.2965 1.7646 2.5672 3.8382 3.2348 4.5405 3.632-8.4916 7.7344-12.236 12.814-23.394 7.0253-15.932-11.472-27.277-18.763-12.208-0.54502-0.25303-0.88969-0.50742-1.687-0.62096 1.7778-4.467 5.275-7.3929 9.0604-8.2932 16.975-1.7943 20.265 13.826 10.962 27.688-3.3546 5.1402-8.6104 12.169-10.453 17.953-0.80918 0-1.9347 0-3.3542-0.01208-1.1646-1.9072-1.9581-4.0729-3.6797-5.5941-4.8225-4.9449-12.156-6.728-16.387-12.33-3.0762-4.351-4.0889-10.651-0.09252-15.429 3.5535-4.0378 13.459-5.1823 18.317-1.1739-0.51953 0.81849-0.84798 1.9438-1.0683 2.4204z" fill="#f00" opacity=".69444"/>
  <path d="m412.42 312.07c0.39311-5.5826-4.0473-10.741-8.6022-10.853-2.9209-0.06147-6.3846 1.452-7.6289 4.148-1.0279-0.04207-1.4635-0.09477-2.6342-0.09203-0.58445-2.0985-3.8181-3.8908-5.8414-4.0844-11.732-0.46407-14.605 11.468-8.6435 19.931 4.4358 5.4158 11.875 10.748 16.305 18.156 1.8837-3.6288 2.615-4.9171 6.4102-8.4764 0.74184 0.82931 0.53044 0.86837 1.3545 1.696-3.858 2.4288-5.3952 5.7817-6.7956 9.2091-0.76637-0.02001-0.53705 0.21705-1.5524 0.13207-2.36-7.5866-14.545-14.315-19.544-22.314-7.8908-13.278 8.493-25.809 19.563-15.259 2.955-3.4758 8.1515-4.3867 12.332-3.2544 2.8332 1.0261 8.13 3.3282 7.3836 11.15-1.0246 0-1.3537-0.18718-2.1073-0.08973z" fill="#f00" opacity=".69444"/>
  <path d="m439.05 330.03c4.7299 1.5539 5.8919 4.3911 7.6237 7.3633 1.568-2.8369 5.542-6.8766 7.4951-9.3309 1.8519-2.2581 3.5526-4.0258 3.9092-7.8013-0.14566-2.6937-1.8013-4.7371-4.0757-5.3973-3.3448-1.1769-6.7175 1.8572-7.3792 3.9391-0.44741-1.9456-1.5971-4.4159-3.9252-3.5122-0.32577-1.2237 0.06235-0.88604-0.44225-1.5698 3.5006-0.12807 3.4579 0.98232 4.724 2.1258 1.164-1.1664 5.4868-3.6841 10.272-0.70653 1.9343 1.1021 2.7758 2.7087 2.7127 5.6523-0.58701 4.1151-1.6404 5.1305-5.921 9.6448-2.188 1.7983-5.2403 5.5823-6.4183 7.6008-0.91358-0.05925-1.0018 0.35704-2.0327 0.07078-1.1231-3.1163-4.1085-5.8581-7.1904-6.9995 0.34639-0.49629 0.31963-0.58073 0.64797-1.0792z" fill="#f00" opacity=".69444"/>
  <path d="m456.41 328.95c2.786 0.95886 5.4553 3.1573 7.2257 5.4948 0.94173-1.5102 1.8531-2.8732 2.5081-3.6749 1.8825-2.3041 3.4538-4.8092 3.5381-7.8303-0.29077-5.234-5.3174-4.459-6.8132-1.2608-0.22689-0.01186-0.6086 0.00172-1.2493-0.0701-0.23348-0.40746-0.47364-0.67293-1.3664-0.9418 0.11179-0.553 0.02927-0.8207-0.07837-1.3118 1.3969 0.29343 1.7651 1.0235 2.1338 1.5217 1.2942-2.1556 3.3267-2.8976 5.4338-2.6066 2.7521 0.52053 3.3816 2.2861 3.289 4.9148-0.24368 2.4045-1.346 4.621-2.7377 6.5631-1.636 1.9821-2.9336 4.1531-4.0158 6.4763-0.46202 0.02203-0.8144-0.0655-1.2516-0.2106-1.3062-2.3591-4.6056-5.5377-7.2408-6.5339 0.25184-0.21208 0.45734-0.37094 0.62478-0.52989z" fill="#f55" opacity=".69444"/>
  <path d="m482.72 325.65c0.24692 2.1301 0.60798 4.4132 0.47527 6.1621 1.379-0.79963 3.3306-1.6156 4.7196-1.8615 2.8494-0.50433 3.9708-2.9829 2.5179-4.8955-0.6672-0.87833-2.2008-0.24832-2.8311 0.02879-0.22959-0.29875-0.42056-0.41941-0.66651-0.62987 1.2349-1.5218 0.68521-3.6718-1.3834-4.3722-1.3913-0.20268-2.5286 0.8065-2.6886 0.98817-0.11839-0.17835-0.04811-0.17699-0.37866-0.51625 2.7672-2.4607 6.8362-0.03309 5.5336 3.4506 0.54643-0.19805 1.6035-0.38193 2.6634 0.05443 1.2803 0.43509 1.8624 2.4009 1.3532 3.6251-0.7958 1.9133-1.4422 2.5037-5.059 3.349-1.2556 0.29346-3.0181 1.2149-3.6127 1.8236-0.20894-0.29088-0.59609-0.56467-1.1192-0.79442 0.0634-1.8017-0.08989-3.7526-0.59721-5.2351 0.46778-0.30065 0.80727-0.70225 1.0732-1.177z" fill="#ff8080" opacity=".69444"/>
  <path d="m373.41 316.55c-2.3508-1.88-6.088-2.6447-8.4468 3.231-0.21984 0.16868-0.69733 0.40865-1.0979 0.54318-0.84277-0.58162-2.0649-1.328-3.857-0.51858-3.5126 1.2705-4.313 4.851-3.8198 8.2164 2.1542 7.8927 12.991 4.8763 16.856 10.109 0.37076-7.1399 5.2009-9.5846 5.2699-13.827 0.61962 1.0875 0.99856 1.1907 1.4222 1.7128-0.77643 2.704-5.3971 6.4527-5.334 12.77-0.53593 0.41106-1.0006 0.63792-1.5549 1.2053-3.8421-4.7204-8.897-4.4891-12.719-5.9334-4.6214-2.0666-5.9463-5.3657-5.0061-9.8704 1.2263-4.5536 4.8903-6.4744 8.8068-5.0901 1.7831-3.4277 4.0519-6.0107 8.8706-5.2124 0.13347 0.89344 0.30793 1.4976 0.61084 2.6631z" fill="#f00" opacity=".69444"/>
  <path d="m348.62 318.36c-0.52169-0.13007-0.34499-0.14502-0.74289-0.17459-3.7382-5.1703-10.312-0.95085-8.6965 4.6876 1.101 4.4721 3.6682 8.3734 5.3488 12.622-0.28996 0.8832-1.5964 0.5797-0.895-0.35816 2.5632-2.486 7.3998-5.4461 10.832-6.8313 0.15351 0.43655 0.2952 0.78476 0.43354 1.2165-1.4268 0.43611-7.1287 2.5686-8.9375 5.4624-0.63876 1.0092-2.3535 1.8119-3.1757 0.57703-1.2696-1.6328-1.509-3.7758-2.5212-5.55-1.4195-3.0192-2.6184-5.5304-2.6919-8.9374 0.03286-2.3726 1.6953-4.6826 3.7558-5.6428 1.895-0.73864 2.8317-0.85556 5.0608 0.10228 0.6549 0.46412 1.4335 1.2592 1.9027 2.2504 2.9335-3.221 7.1996-2.328 9.067 1.5674-0.34289 0.25107-0.40661 0.27935-0.88186 0.79972-1.2349-3.6942-6.0439-4.3685-7.858-1.7906z" fill="#ff8080" opacity=".69444"/>
  <path d="m338.96743,316.67265c-2.01584-3.52622-5.37233-.06717-5.61873,2.7241-.63865.43255-.74714.52997-1.48848.92067-.52135-.91264-2.6626-1.95931-3.75235-1.461-1.26174.56271-1.36171,2.05228-1.06851,3.27104 .46357,2.1928 2.5172,3.66407 4.49237,4.52629 1.33821.7092 3.39928,1.52223 4.71682,2.26976 .3926-1.36015.82466-2.41573 1.59441-3.62787 .16037.50969.24907.81279.53642,1.35356-.88863.805-1.06873,1.95495-1.35134,3.07048-.47601.11243-.45903.0459-.74053.33109-1.14617-.82973-3.71478-2.02694-5.00358-2.62022-1.99524-.96976-3.74532-1.60843-5.0345-3.499-.98721-1.39349-1.30308-3.46455-.18106-4.87339 .93673-1.1035 2.54525-1.00719 3.83332-.75608 .6407.05533 1.80783.62877 2.35114.75412 .1369-.69901.18964-1.09744.78771-2.45508 .56946-1.06044 1.23692-1.71685 2.59838-2.16065 2.09493-.38618 3.16312-.1917 4.27756,1.26148-.22091.21217-.64658.55518-.94905.9707z" fill="#f00" opacity=".69444"/>
  <path d="m327.63648,326.04571c-2.2564,2.05994-3.61848,4.78822-4.49436,5.7693-.56247.63002-1.20793.43569-1.62986.36532-.64842-1.85208-3.42988-3.71309-3.91299-5.63157-.29983-1.0456-.50977-2.1694-.27435-3.24754 .36242-1.00737 1.90062-1.64719 2.91835-1.56977 .75901-.01194 1.17884.19044 1.8195.63289 .87075.50183-.12256.86219-.78785.4628 .03976-.69769.77091-1.03243 1.31661-1.30023 .67151-.27032 1.40254-.37072 2.12349-.35237 .76471.31227.31001,2.18674.19562,1.35759 .08591-.23697-.86793-.45997-1.13146-.52442-.74826.39857-.37826.76385-1.28842.87678-1.78225-.12811-2.5002-.685-3.51669.7949-.07665.95464.15976,1.90769.41583,2.82062 .5272,1.77557 1.61805,2.7049 2.44027,4.35073 .72472.9326 1.12786-.48484 1.3903-.8634 1.00161-1.33873 1.77291-3.39132 3.17023-4.43392 .434-.49698.64756.29828 1.24578.49229z" fill="#f55" opacity=".69444"/>
  <path d="m469.26999,318.39962c2.01584-3.52622 5.37233-.06717 5.61873,2.7241 .63865.43255.74714.52997 1.48848.92067 .52135-.91264 2.6626-1.95931 3.75235-1.461 1.26174.56271 1.36171,2.05228 1.06851,3.27104-.46357,2.1928-2.5172,3.66407-4.49237,4.52629-1.33821.7092-3.39928,1.52223-4.71682,2.26976-.3926-1.36015-.82466-2.41573-1.59441-3.62787-.16037.50969-.24907.81279-.53642,1.35356 .88863.805 1.06873,1.95495 1.35134,3.07048 .47601.11243.45903.0459.74053.33109 1.14617-.82973 3.71478-2.02694 5.00358-2.62022 1.99524-.96976 3.74532-1.60843 5.0345-3.499 .98721-1.39349 1.30308-3.46455.18106-4.87339-.93673-1.1035-2.54525-1.00719-3.83332-.75608-.6407.05533-1.80783.62877-2.35114.75412-.1369-.69901-.18964-1.09744-.78771-2.45508-.56946-1.06044-1.23692-1.71685-2.59838-2.16065-2.09493-.38618-3.16312-.1917-4.27756,1.26148 .22091.21217.64658.55518.94905.9707z" fill="#f00" opacity=".69444"/>
 </g>
</svg>
