<?xml version="1.0" encoding="UTF-8"?>
<svg enable-background="new 0 0 1920 1283" version="1.1" viewBox="0 0 1920 1283" xmlns="http://www.w3.org/2000/svg">
 <path d="m1358 1284c-0.328-3.959-3.433-5.972-6.043-8.156-5.107-4.273-10.267-8.524-15.716-12.341-18.518-12.97-25.419-29.987-19.044-52.068 4.617-15.993 0.828-30.101-9.723-42.849-7.763-9.38-16.099-18.232-24.042-27.439-2.391-2.771-4.592-5.706-6.856-8.584-4.298-5.463-4.012-11.053-0.253-16.602 2.239-3.305 4.729-6.439 7.032-9.702 3.449-4.888 3.395-9.89 0.357-14.967-2.239-3.742-4.992-7.093-8.036-10.172-9.083-9.189-16.292-19.704-22.815-30.817-19.872-33.857-39.056-68.124-59.975-101.36-10.936-17.376-24.35-32.921-36.658-49.285-7.003-9.31-14.049-18.628-15.742-30.732-1.279-9.144-1.625-18.225 0.418-27.301 2.576-11.439 8.226-16.487 19.876-18.681 14.6-2.749 29.198-2.003 43.799-0.558 20.706 2.049 41.425 4.036 62.07 6.6 22.943 2.849 45.798 6.404 68.714 9.484 17.14 2.304 34.207 5.619 51.644 4.562 3.986-0.242 7.988-0.486 11.934-1.064 20.245-2.964 39.731 2 59.345 5.566 15.54 2.825 31.001 6.084 46.677 8.14 5.807 0.761 11.531 0.048 16.497-2.736 12.868-7.216 26.597-7.324 40.741-6.561 26.45 1.426 52.927 2.369 79.396 3.424 8.165 0.326 16.341 0.068 24.463-0.849 11.306-1.277 21.314-6.176 31.112-11.573 11.071-6.099 22.66-10.554 35.529-10.248 9.497 0.226 18.867 1.8 28.23 3.361 14.1 2.352 28.036 5.659 42.349 6.78 8.618 0.675 16.117-1.588 22.749-6.997 2.194-1.79 4.455-3.516 6.506-5.461 10.454-9.91 22.815-12.387 36.572-9.54 2.278 0.471 4.577 0.915 6.79 1.613 12.361 3.898 24.479 3.913 36.461-1.611 2.664-1.228 5.749-1.542 8.64-2.276 0 155.5-0.016 311 0.094 466.5 3e-3 3.75-0.845 4.596-4.594 4.594-186.16-0.106-372.33-0.093-558.5-0.093z"/>
 <path d="m1 855c2.073-3.148 5.129-3.983 8.592-3.331 6.037 1.137 11.893 1.975 17.368 5.893 4.039 2.89 10.08 2.956 15.207 4.358 19.39 5.3 38.975 3.422 58.557 1.623 29.505-2.71 58.937-6.484 88.676-5.567 15.328 0.473 30.582 1.927 45.822 3.395 21.85 2.105 43.598 1.524 65.258-1.676 18.811-2.779 37.691-4.369 56.69-4.65 20.49-0.303 40.979-0.493 61.472-0.077 5.883 0.119 11.174 1.391 15.691 5.306 3.832 3.321 8.418 4.6 13.381 4.662 6.663 0.083 13.328 0.044 19.991 0.132 9.633 0.127 18.646 9.201 18.681 18.862 7e-3 1.982-0.127 4.064-0.723 5.931-4.396 13.76-8.776 27.529-13.458 41.193-4.082 11.913-11.583 21.415-22.377 27.858-11.191 6.68-18.52 16.154-23.965 27.852-6.376 13.699-13.118 27.283-20.275 40.571-7.22 13.404-7.91 26.92-6.232 41.524 3.097 26.958 4.983 54.035 3.771 81.224-0.227 5.1-1.43 10.116-4.33 14.149-12.34 17.163-18.208 37.217-25.85 56.483-3.185 8.03-6.349 16.072-9.293 24.192-3.439 9.485-8.958 17.779-14.301 26.21-2.462 3.885-5.362 7.764-4.354 12.884-113.33 0-226.67-0.02-340 0.095-3.424 4e-3 -4.098-0.672-4.095-4.095 0.112-141.67 0.096-283.33 0.096-425z"/>
 <path d="m636.34 252.34c1.238-1.512-0.135-2.409-0.845-3.421-2.662-3.796-5.269-7.634-8.066-11.328-2.241-2.96-1.161-4.629 1.682-6.245 7.621-4.331 10.94-3.664 16.623 3.548 0.63 0.8 0.842 2.28 2.429 1.936-0.533 1.039 0.322 1.789 0.558 2.667-0.039-0.44 0.049-0.49 0.262-0.149-0.133 0.015-0.266 0.03-0.398 0.045 0.225-0.91 0.627-1.859-0.536-2.467-0.325-2.383-2.08-4.12-2.846-6.292-0.55-1.56-2.513-3.173-0.277-4.832 1.987-1.475 3.421 0.202 4.875 1.17 3.35 2.232 6.272 4.946 8.762 8.119 4.525 5.765 9.049 11.531 13.61 17.268 0.579 0.728 0.957 2.088 2.144 1.749 1.172-0.335 0.603-1.696 0.855-2.583 0.637-2.235 1.037-4.549 1.824-6.726 0.805-2.226 2.77-2.744 4.916-2.38 2.142 0.363 2.368 2.087 2.322 3.821-0.159 5.996-0.361 11.991-0.554 17.986-0.244 7.564 1.125 9.424 8.649 10.04 13.108 1.074 26.245 1.805 39.366 2.722 8.948 0.626 17.586 1.589 25.88 6.137 8.369 4.589 18.369 4.137 27.688 5.724 0.849 0.145 1.854 0.02 2.187-0.818 1.819-4.579 6.121-3.864 9.419-3.784 13.427 0.327 26.958-2.093 40.289 1.356 1.896 0.491 4.602 0.729 5.482-1.137 1.267-2.687 1.676-6.937-6e-3 -8.613-3.48-3.467-2.335-7.684-3.567-11.429-0.366-1.114 0.345-2.798-2.068-1.649-1.394 0.663-1.636-1.07-2.061-2.138-6.41-16.109-3.54-31.148 8.462-42.811 7.299-7.093 17.75-11.188 28.786-9.447 11.989 1.892 23.685 5.236 35.396 8.415 1.034 0.281 2.63 0.142 2.377 1.843-0.161 1.085-1.342 1.396-2.344 1.562-1.642 0.272-3.303 0.431-4.941 0.722-1.233 0.219-3.108-0.397-3.435 1.232-0.282 1.408 1.439 2.093 2.477 2.836 4.782 3.423 9.608 6.781 10.379 13.313 0.167 1.414 1.214 3.134-0.503 4.091-1.445 0.806-2.473-0.686-3.306-1.57-2.554-2.711-3.374-1.684-3.571 1.416-0.158 2.485-0.723 4.973-0.621 7.44 0.183 4.419-0.177 8.553-2.899 12.309-1.703 2.349-1.605 5.021-0.08 7.532 1.916 3.154 1.517 5.553-1.942 7.38-2.237 1.182-4.005 2.854-4.392 5.685-0.341 2.497-2.151 4.042-4.293 5.191-0.681 0.365-1.85 0.451-1.581 1.537 0.267 1.077 1.383 0.613 2.111 0.606 8.767-0.078 17.125-2.345 25.228-5.365 3.856-1.437 7.508-2.446 11.617-1.765 2.464 0.408 4.932 0.209 7.396-0.577 11.324-3.613 21.966-8.593 31.836-15.248 7.242-4.883 12.337-11.573 16.559-19.047 8.359-14.798 15.304-30.257 21.388-46.106 2.358-6.143 1.825-7.744-3.158-11.971-6.625-5.619-5.008-20.812 2.851-26 4.616-3.047 9.84-4.867 15.032-6.605 1.993-0.667 4.711-2.078 6.36 0.615 1.473 2.406 1.419 5.124-0.335 7.494-0.791 1.069-1.834 1.799-1.067 3.417 5.37 11.319 2.866 22.639 0.32 34.127-3.919 17.69-7.643 35.383-13.738 52.525-4.857 13.661-13.44 23.892-25.616 31.469-8.353 5.198-17.125 9.596-25.879 14.026-4.971 2.516-8.134 6.126-9.098 11.679-1.084 6.248-4.723 10.742-9.667 14.586-10.916 8.488-22.773 15.672-33.439 24.513-5.085 4.215-8.496 9.157-10.04 15.6-1.781 7.429-3.993 14.753-5.911 22.15-4.517 17.414-12.688 33.16-21.868 48.472-2.733 4.558-5.183 9.29-7.642 14.006-1.209 2.319-1.059 4.544 2.23 4.351 20.732-1.217 38.489 9.405 57.644 14.417 7.141 1.869 14.083 3.871 21.555 2.225 5.352-1.178 10.193 0.561 14.76 3.242 12.734 7.473 18.614 18.906 19.591 33.354 0.564 8.34 2.79 16.34 5.704 24.183 4.866 13.095 10.223 25.975 15.974 38.704 2.597 5.748 6.113 10.639 11.105 14.502 4.386 3.393 7.811 7.743 11.239 12.019 3.843 4.795 2.919 7.575-2.78 9.803-1.083 0.423-2.21 0.733-3.303 1.131-1.341 0.488-3.378 0.605-2.7 2.74 0.745 2.345 2.565 3.912 5.06 4.309 1.426 0.227 3.496 0.523 3.624-1.517 0.22-3.504 2.637-4 5.134-4.238 5.55-0.529 10.051-3.263 14.433-6.357 6.717-4.742 10.884-10.726 9.597-19.429-0.145-0.983-0.089-1.997-0.104-2.996-0.093-6.007 0.83-7.468 5.367-8.521 5.376-1.248 9.144 0.253 11.301 4.849 2.395 5.102 3.328 10.557 1.98 16.068-3.418 13.968-7.491 27.632-18.203 38.202-4.147 4.092-5.605 9.722-7.323 15.12-1.713 5.382-3.168 10.871-5.969 15.835-3.008 5.333-6.293 6.808-12.039 4.874-7.092-2.387-12.963-6.743-17.856-12.375-2.445-2.814-2.613-6.413-2.959-9.882-1.042-10.434-7.383-17.934-14.01-25.22-2.069-2.275-4.832-1.497-7.486-0.701-7.456 2.234-8.81 1.433-10.801-6.213-0.712-2.734-1.426-5.479-1.907-8.258-2.351-13.562-7.488-25.799-16.647-36.25-6.481-7.396-10.618-16.042-12.994-25.556-0.443-1.773-0.907-3.544-1.436-5.293-2.536-8.372-4.528-9.849-13.225-9.583-3.356 0.103-6.64-0.033-9.862-1.104-2.881-0.958-5.701-1.51-8.614 0.309-1.862 1.162-3.973 0.897-5.235-1.185-1.327-2.19-3.228-2.554-5.545-2.427-18.962 1.033-37.924 2.062-56.892 2.966-2.406 0.115-3.483 1.616-4.758 3.121-17.453 20.595-35.394 40.762-53.211 61.04-9.553 10.872-20.351 20.037-32.813 27.415-35.516 21.027-71.48 41.253-107.78 60.893-2.396 1.297-4.749 3.304-7.701 0.857-1.283-1.064-2.547 0.07-3.623 0.781-7.368 4.866-14.541 10.003-21.473 15.479-1.976 1.561-2.934 3.058-1.202 5.411 1.452 1.974 1.13 3.81-1.092 4.986-1.634 0.864-1.501 1.847-1.36 3.578 0.365 4.464-3.273 8.258-7.899 8.487-2.353 0.116-2.602 1.805-3.2 3.226-3.746 8.899-5.437 18.114-4.202 27.79 0.345 2.701 1.514 5.956-2.134 7.36-3.565 1.373-6.563-0.053-8.752-2.984-4.992-6.682-9.365-13.735-12.679-21.428-1.75-4.061-2.138-8.264-0.216-12.11 4.299-8.601 3.248-17.48 2.177-26.431-0.633-5.29-1.377-10.568-1.919-15.867-0.494-4.836 0.802-6.625 5.611-7.788 5.053-1.222 10.215-1.344 15.381-1.034 10.611 0.637 18.63-5.199 26.654-10.821 2.698-1.89 1.093-4.542-0.079-6.737-1.806-3.383-3.625-6.674-3.702-10.711-0.072-3.773 1.003-6.438 4.889-7.622 6.375-1.942 12.685-3.896 19.534-3.037 10.457 1.312 19.764-0.761 28.57-7.393 16.092-12.117 33.025-23.13 47.607-37.169 2.09-2.012 5.421-3.64 3.08-7.705-0.634-1.101 0.811-2.425 1.552-3.497 7.493-10.829 15.457-21.295 24.219-31.138 4.534-5.093 10.094-8.715 16.556-10.761 7.189-2.277 11.014-7.263 12.05-14.43 0.685-4.742 1.469-9.465 0.688-14.391-0.963-6.073 1.685-11.784 3.031-17.573 2.068-8.896 4.533-17.705 7.024-26.496 0.598-2.111 0.806-3.391-1.748-4.012-3.258-0.792-2.735-2.847-1.21-4.855 2.114-2.784 4.256-5.563 6.591-8.16 14.941-16.615 21.562-36.003 19.755-58.299-0.873-10.775-1.165-21.589-3.668-32.203-1.551-6.574-5.178-11.112-11.369-13.469-5.273-2.007-10.713-3.569-16.035-5.454-5.082-1.8-6.015-4.049-4.05-9.217 0.295-0.775 0.575-1.577 1.01-2.274 5.121-8.198 2.056-8.424-4.553-11.294-4.754-2.065-9.755-3.859-14.909-3.79-20.884 0.279-40.218-6.604-59.87-12.225-12.588-3.6-24.417-8.424-34.975-16.421-10.4-7.877-18.646-17.534-25.667-28.367-0.91-1.403-2.83-3.232-0.875-4.782 1.977-1.568 3.754 0.245 5.114 1.702 1.224 1.311 2.871 2.309 3.438 4.171 0.765 0.086 1.411 0.363 1.765 1.106-0.263-0.379-0.213-0.461 0.152-0.244-0.116 0.058-0.233 0.116-0.349 0.174-0.532-0.35-1.062-0.705-1.592-1.06z"/>
 <path d="m517.05 823.57c3.768-0.248 6.167 0.664 6.953 4.078 0.726 3.155-1.237 4.479-3.686 5.507-1.972 0.828-3.955 1.634-5.888 2.545-2.133 1.005-3.686 0.677-4.838-1.531-1.258-2.411-4.106-4.564-2.801-7.47 1.303-2.899 4.716-2.476 7.443-2.844 1.144-0.153 2.298-0.233 2.817-0.285z"/>
 <path d="m545.22 946.41c0.11 2.072-0.674 3.053-2.933 2.804-4.881-0.54-11.003-8.528-10.068-13.277 0.098-0.496 0.223-0.862 0.85-0.976 3.716-0.676 12.226 7.319 12.151 11.449z"/>
 <path d="m507.14 926.92c1.941-0.101 4.058-0.275 3.844 3.168-0.266 4.266-1.919 6.056-6.106 6.119-2.986 0.045-5.346-0.696-5.575-4.182-0.23-3.515 2.1-5.058 7.837-5.105z"/>
 <path d="m502.41 888.96c-0.284 1.861-0.845 3.637-2.818 4.292-1.91 0.635-2.596-1.078-3.353-2.259-1.153-1.799-2.202-3.681-3.116-5.612-0.674-1.425-0.836-2.996 1.033-3.731 1.448-0.569 2.998-1.604 4.169 0.69 1.173 2.3 3.862 3.689 4.085 6.62z"/>
</svg>
