<svg width="1600" height="500" xmlns="http://www.w3.org/2000/svg"><g text-anchor="middle" font-family="Impact"><text transform="rotate(-45 751.23 -1066.714) scale(1.00756)" font-size="100" fill="#6b6ecf">Blender</text><text transform="rotate(90 165.176 473.614) scale(1.00756)" font-size="100" fill="#9c9ede">Python</text><text transform="rotate(45 205.329 1493.745) scale(1.00756)" font-size="100" fill="#637939">Sūdoku</text><text transform="rotate(-90 462.028 -166.688) scale(1.00756)" font-size="100" fill="#8ca252">Ruby</text><text transform="rotate(90 95.655 318.451) scale(1.00756)" font-size="55" fill="#bd9e39">数独</text><text transform="rotate(-90 594.018 -236.209) scale(1.00756)" font-size="55" fill="#e7ba52">XML</text><text transform="rotate(-90 647.921 -381.801) scale(1.00756)" font-size="55" fill="#e7cb94">Unity</text><text transform="rotate(45 370.521 1527.912) scale(1.00756)" font-size="10" fill="#843c39">kwadrat magiczny</text><text transform="rotate(-90 801.07 -495.654) scale(1.00756)" font-size="55" fill="#ad494a">matematyka</text><text transform="rotate(-45 634.52 -898.471) scale(1.00756)" font-size="10" fill="#d6616b">łamigówka</text><text transform="rotate(45 -25.405 695.902) scale(1.00756)" font-size="10" fill="#e7969c">number place</text><text transform="matrix(.71245 -.71245 .71245 .71245 433.25 332.62)" font-size="10" fill="#a55194">3D</text><text transform="rotate(45 -267.619 400.107) scale(1.00756)" font-size="55" fill="#ce6dbd">modelowanie 3D</text><text transform="translate(1145.592 342.695) scale(1.00756)" font-size="10" fill="#de9ed6">vertex</text><text transform="translate(983.375 310.453) scale(1.00756)" font-size="10" fill="#393b79">edge</text><text transform="rotate(-45 708.623 -860.652) scale(1.00756)" font-size="10" fill="#5254a3">face</text><text transform="rotate(45 94.322 971.188) scale(1.00756)" font-size="10" fill="#6b6ecf">mesh</text><text transform="matrix(.71245 -.71245 .71245 .71245 527.96 208.69)" font-size="10" fill="#9c9ede">UV mapping</text><text transform="translate(506.801 275.189) scale(1.00756)" font-size="10" fill="#637939">teksturowanie</text><text transform="rotate(-45 811.173 -1311.191) scale(1.00756)" font-size="10" fill="#8ca252">shadery</text><text transform="rotate(-90 406.612 -44.773) scale(1.00756)" font-size="10" fill="#b5cf6b">cycles renderer</text><text transform="rotate(45 -203.561 420.596) scale(1.00756)" font-size="55" fill="#7b4173">dziewięć na dziewięć</text><text transform="translate(1325.945 164.358) scale(1.00756)" font-size="81" fill="#cedb9c">tworzenie gier</text><text transform="translate(539.043 163.35) scale(1.00756)" font-size="81" fill="#8c6d31">nauka programowania</text></g></svg>